<?xml version="1.0" encoding="utf-8"?>
<!-- Generator: Adobe Illustrator 26.2.1, SVG Export Plug-In . SVG Version: 6.00 Build 0)  -->
<svg version="1.1" id="Capa_1" xmlns="http://www.w3.org/2000/svg" xmlns:xlink="http://www.w3.org/1999/xlink" x="0px" y="0px"
	 viewBox="0 0 401 289" style="enable-background:new 0 0 401 289;" xml:space="preserve">
<style type="text/css">
	.st0{fill:#004092;}
	.st1{fill:#9B999E;}
	.st2{fill:#00155C;}
	.st3{fill:#002A84;}
</style>
<g>
	<g>
		<g>
			<path class="st0" d="M369.16,178.84C369.16,178.84,369.16,178.84,369.16,178.84l-329.14-0.79c-0.93,0-1.69-0.76-1.69-1.7
				c0-0.93,0.76-1.69,1.69-1.69c0,0,0,0,0,0l329.14,0.79c0.93,0,1.69,0.76,1.69,1.7C370.85,178.08,370.09,178.84,369.16,178.84z"/>
			<path class="st0" d="M357.7,182.8H51.48c-0.47,0-0.85-0.38-0.85-0.85s0.38-0.85,0.85-0.85H357.7c0.47,0,0.85,0.38,0.85,0.85
				S358.17,182.8,357.7,182.8z"/>
		</g>
		<g>
			<path class="st0" d="M67.88,220.33l5.36-0.01c2.44,0,4.45,0.48,6.05,1.44c1.6,0.96,2.76,2.21,3.5,3.73
				c0.73,1.52,1.1,3.13,1.1,4.83c0,1.89-0.44,3.57-1.32,5.02c-0.88,1.45-2.06,2.57-3.54,3.36c-1.48,0.79-3.08,1.18-4.82,1.18
				l-6.3,0.01L67.88,220.33z M73.7,237.34c1.44,0,2.73-0.29,3.87-0.86c1.14-0.57,2.02-1.4,2.66-2.48c0.64-1.08,0.96-2.37,0.96-3.87
				c0-1.53-0.34-2.85-1.01-3.95c-0.67-1.1-1.56-1.93-2.67-2.5c-1.11-0.57-2.31-0.85-3.59-0.85l-3.41,0l0.02,14.5L73.7,237.34z"/>
			<path class="st0" d="M101,220.28l0,2.52l-10.09,0.02l0.01,5.95l9.01-0.01l0,2.52l-9.01,0.01l0.01,6.03l10.47-0.02l0,2.54
				l-13.1,0.02l-0.03-19.56L101,220.28z"/>
			<path class="st0" d="M126.51,239.5c-0.96,0.35-2.02,0.53-3.15,0.53c-2,0-3.77-0.44-5.29-1.32c-1.53-0.88-2.7-2.07-3.52-3.57
				c-0.82-1.5-1.24-3.15-1.24-4.95c0-1.93,0.41-3.67,1.24-5.21c0.83-1.54,1.98-2.75,3.44-3.63s3.13-1.32,4.99-1.32
				c1.1,0,2.13,0.14,3.09,0.43c0.96,0.29,1.81,0.67,2.57,1.13l-1.05,2.46c-1.5-1.01-3.01-1.51-4.52-1.51c-1.26,0-2.43,0.34-3.5,1.01
				c-1.07,0.67-1.93,1.58-2.57,2.72s-0.96,2.41-0.95,3.78c0,1.41,0.3,2.68,0.88,3.82c0.59,1.13,1.43,2.02,2.52,2.66
				s2.35,0.96,3.78,0.96c1.75,0,3.27-0.5,4.57-1.5l1.11,2.35C128.27,238.76,127.47,239.14,126.51,239.5z"/>
			<path class="st0" d="M143.56,234.64l-7.52,0.01l-2.08,5.15l-2.6,0l8.52-20.39l0.16,0l8.58,20.36l-3.03,0L143.56,234.64z
				 M142.67,232.37l-2.8-7.14l-2.88,7.15L142.67,232.37z"/>
			<path class="st0" d="M163.05,239.75l-4.61-7.22c-0.14,0.02-0.36,0.03-0.65,0.03l-2.9,0l0.01,7.2l-2.62,0l-0.03-19.57l5.22-0.01
				c1.33,0,2.53,0.23,3.57,0.7c1.05,0.47,1.87,1.16,2.46,2.07c0.6,0.91,0.9,2,0.9,3.29c0,1.21-0.26,2.32-0.79,3.33
				c-0.53,1.01-1.35,1.78-2.45,2.3l4.94,7.87L163.05,239.75z M160.78,228.9c0.62-0.74,0.93-1.59,0.93-2.54
				c0-0.58-0.13-1.15-0.4-1.71c-0.26-0.56-0.68-1.02-1.25-1.39c-0.57-0.37-1.29-0.55-2.15-0.55l-3.03,0l0.01,7.31l2.84,0
				C159.14,230.02,160.15,229.64,160.78,228.9z"/>
			<path class="st0" d="M182.25,239.34c-1.27,0.4-2.45,0.6-3.53,0.6c-2.04,0-3.83-0.41-5.39-1.25c-1.55-0.84-2.75-1.99-3.59-3.45
				c-0.84-1.46-1.26-3.1-1.27-4.92c0-2.13,0.44-3.97,1.34-5.54c0.9-1.56,2.12-2.76,3.65-3.59s3.21-1.25,5.03-1.25
				c1.1,0,2.14,0.13,3.11,0.39c0.97,0.26,1.85,0.61,2.63,1.04l-0.86,2.41c-0.58-0.32-1.3-0.61-2.18-0.85
				c-0.88-0.24-1.67-0.36-2.37-0.36c-1.52,0-2.85,0.31-4.02,0.93c-1.16,0.62-2.06,1.49-2.69,2.63c-0.63,1.14-0.94,2.46-0.94,3.98
				c0,1.41,0.32,2.66,0.95,3.76c0.63,1.1,1.53,1.95,2.68,2.55s2.47,0.9,3.95,0.9c0.69,0,1.35-0.07,2-0.21
				c0.65-0.14,1.19-0.33,1.62-0.58l-0.01-3.87l-3.9,0.01l0-2.52l6.55-0.01l0.01,7.9C184.46,238.51,183.52,238.95,182.25,239.34z"/>
			<path class="st0" d="M200.31,234.55l-7.52,0.01l-2.08,5.14l-2.6,0l8.52-20.39h0.16l8.58,20.36l-3.03,0L200.31,234.55z
				 M199.41,232.28l-2.8-7.14l-2.88,7.15L199.41,232.28z"/>
			<path class="st0" d="M230.12,239.27c-1.27,0.4-2.45,0.6-3.53,0.6c-2.04,0-3.83-0.41-5.39-1.25c-1.55-0.84-2.75-1.99-3.59-3.45
				c-0.84-1.46-1.26-3.1-1.27-4.92c0-2.13,0.44-3.97,1.34-5.54c0.9-1.56,2.12-2.76,3.65-3.59s3.21-1.25,5.03-1.25
				c1.1,0,2.14,0.13,3.11,0.39c0.97,0.26,1.85,0.61,2.63,1.04l-0.86,2.41c-0.58-0.32-1.3-0.61-2.18-0.85
				c-0.88-0.24-1.67-0.36-2.37-0.36c-1.52,0-2.85,0.31-4.02,0.93c-1.16,0.62-2.06,1.49-2.69,2.63c-0.63,1.14-0.94,2.46-0.94,3.98
				c0,1.41,0.32,2.66,0.95,3.76c0.63,1.1,1.53,1.95,2.68,2.55s2.47,0.9,3.95,0.9c0.69,0,1.35-0.07,2-0.21
				c0.65-0.14,1.19-0.33,1.62-0.58l-0.01-3.87l-3.9,0.01l0-2.52l6.55-0.01l0.01,7.9C232.33,238.44,231.39,238.87,230.12,239.27z"/>
			<path class="st0" d="M257.35,219.42l0.03,20.19l-2.6,0l-0.02-12.66l-7.18,10.21h-0.05l-7.08-9.84l0.02,12.31l-2.54,0l-0.03-20.19
				h0.03l9.65,13.62l9.75-13.65H257.35z"/>
			<path class="st0" d="M274.54,220.02l0,2.52l-5.25,0.01l0.03,17.05l-2.62,0l-0.03-17.05l-5.11,0.01l0-2.52L274.54,220.02z"/>
			<path class="st0" d="M295.16,222.56c-0.8-0.23-1.54-0.35-2.25-0.35c-1.07,0-1.91,0.24-2.53,0.72c-0.62,0.48-0.93,1.13-0.93,1.96
				c0,0.81,0.37,1.47,1.1,1.99c0.73,0.51,1.77,1.02,3.13,1.52c1.01,0.36,1.87,0.75,2.56,1.17c0.7,0.42,1.27,1.01,1.74,1.76
				c0.46,0.75,0.69,1.7,0.69,2.85c0,1.05-0.26,1.99-0.78,2.84c-0.52,0.85-1.27,1.52-2.23,2c-0.96,0.49-2.1,0.73-3.39,0.74
				c-1.21,0-2.37-0.19-3.49-0.58c-1.12-0.39-2.1-0.88-2.95-1.47l1.16-2.08c0.67,0.5,1.47,0.93,2.41,1.28s1.81,0.52,2.62,0.52
				c1.05,0,1.96-0.27,2.75-0.82c0.78-0.54,1.17-1.35,1.17-2.41c0-0.9-0.33-1.62-0.99-2.15c-0.66-0.53-1.58-1.03-2.78-1.5
				c-1.1-0.41-2.02-0.82-2.75-1.21s-1.36-0.94-1.88-1.63c-0.52-0.69-0.79-1.56-0.79-2.61c0-1.53,0.53-2.77,1.6-3.72
				c1.07-0.95,2.46-1.45,4.18-1.51c2.11,0,4.07,0.52,5.88,1.56l-1,2.03C296.71,223.1,295.96,222.79,295.16,222.56z"/>
			<path class="st0" d="M301.6,237.08c0.29-0.29,0.62-0.43,1-0.43c0.34,0,0.66,0.14,0.96,0.43s0.45,0.63,0.45,1.03
				c0,0.42-0.14,0.76-0.43,1.03s-0.61,0.41-0.97,0.41c-0.38,0-0.71-0.13-1-0.4c-0.29-0.27-0.43-0.61-0.44-1.03
				C301.17,237.71,301.31,237.37,301.6,237.08z"/>
			<path class="st0" d="M317.88,234.38l-7.52,0.01l-2.08,5.15l-2.6,0l8.52-20.39l0.16,0l8.58,20.36l-3.03,0L317.88,234.38z
				 M316.99,232.11l-2.8-7.14l-2.88,7.15L316.99,232.11z"/>
			<path class="st0" d="M325.14,237.05c0.29-0.29,0.62-0.43,1-0.43c0.34,0,0.66,0.14,0.96,0.43c0.3,0.29,0.45,0.63,0.45,1.03
				c0,0.42-0.14,0.76-0.43,1.03c-0.29,0.27-0.61,0.41-0.97,0.41c-0.38,0-0.71-0.13-1-0.4c-0.29-0.27-0.43-0.61-0.44-1.03
				C324.71,237.68,324.85,237.34,325.14,237.05z"/>
			<path class="st0" d="M339.03,222.5c-0.8-0.23-1.54-0.35-2.25-0.35c-1.07,0-1.91,0.24-2.53,0.72c-0.62,0.48-0.93,1.13-0.93,1.96
				c0,0.81,0.37,1.47,1.1,1.99c0.73,0.51,1.77,1.02,3.13,1.52c1.01,0.36,1.87,0.75,2.56,1.17c0.7,0.42,1.27,1.01,1.74,1.76
				c0.46,0.75,0.69,1.7,0.69,2.85c0,1.05-0.26,1.99-0.78,2.84c-0.52,0.85-1.27,1.52-2.23,2.01c-0.96,0.49-2.1,0.73-3.39,0.74
				c-1.21,0-2.37-0.19-3.49-0.58c-1.12-0.39-2.1-0.88-2.95-1.47l1.16-2.09c0.67,0.5,1.47,0.93,2.41,1.28s1.81,0.52,2.62,0.52
				c1.05,0,1.96-0.27,2.75-0.82c0.78-0.54,1.17-1.35,1.17-2.41c0-0.9-0.33-1.62-0.99-2.15c-0.66-0.53-1.58-1.03-2.78-1.5
				c-1.1-0.41-2.02-0.82-2.75-1.21s-1.36-0.94-1.88-1.63c-0.52-0.69-0.79-1.56-0.79-2.61c0-1.53,0.53-2.78,1.6-3.72
				c1.07-0.95,2.46-1.45,4.18-1.51c2.11,0,4.07,0.52,5.88,1.56l-1,2.03C340.57,223.03,339.82,222.73,339.03,222.5z"/>
		</g>
		<g>
			<path class="st1" d="M99.7,194.39v2.18h-4.55v14.77h-2.27v-14.77h-4.43v-2.18H99.7z"/>
			<path class="st1" d="M104.57,202.53c0.46-0.41,0.95-0.72,1.47-0.94c0.52-0.22,0.97-0.34,1.36-0.35l-0.09,2.18
				c-0.7-0.03-1.34,0.11-1.91,0.42c-0.57,0.31-1.02,0.75-1.34,1.3c-0.32,0.56-0.48,1.15-0.48,1.77v4.43h-2.18v-9.71h1.95l0.17,2.3
				C103.75,203.41,104.11,202.94,104.57,202.53z"/>
			<path class="st1" d="M119.94,201.64v9.71h-2.18v-1.59c-0.34,0.45-0.84,0.87-1.5,1.25c-0.66,0.38-1.4,0.57-2.23,0.57
				c-0.92,0-1.76-0.2-2.5-0.6s-1.33-0.98-1.76-1.75c-0.43-0.77-0.64-1.68-0.64-2.74c0-1.06,0.22-1.99,0.67-2.78
				c0.45-0.79,1.05-1.4,1.81-1.83c0.76-0.43,1.6-0.64,2.52-0.64c0.83,0,1.55,0.18,2.16,0.54c0.61,0.36,1.1,0.83,1.48,1.41l0.16-1.55
				H119.94z M116.67,209.11c0.57-0.45,0.93-1.05,1.09-1.82v-1.92c-0.19-0.69-0.58-1.25-1.17-1.68c-0.59-0.43-1.28-0.64-2.04-0.64
				c-0.58,0-1.11,0.14-1.61,0.42s-0.88,0.68-1.17,1.18s-0.43,1.08-0.43,1.72c0,0.63,0.15,1.2,0.45,1.71s0.7,0.93,1.2,1.23
				s1.05,0.46,1.64,0.46C115.42,209.78,116.1,209.56,116.67,209.11z"/>
			<path class="st1" d="M132.02,202.07c0.59,0.54,0.9,1.24,0.91,2.1v7.18h-2.2v-6.43c-0.03-0.55-0.2-0.98-0.49-1.29
				c-0.3-0.31-0.74-0.48-1.34-0.49c-0.86,0-1.57,0.34-2.13,1.03c-0.56,0.69-0.84,1.56-0.84,2.63v4.55h-2.18v-9.71h1.97l0.14,1.88
				c0.34-0.7,0.86-1.25,1.55-1.65c0.69-0.4,1.48-0.6,2.37-0.6C130.67,201.27,131.42,201.54,132.02,202.07z"/>
			<path class="st1" d="M137.4,211.19c-0.65-0.25-1.18-0.62-1.58-1.1l0.94-1.27c0.39,0.38,0.8,0.66,1.23,0.87s0.86,0.3,1.28,0.3
				c0.52,0,0.94-0.1,1.27-0.3c0.33-0.2,0.49-0.52,0.49-0.94c0-0.33-0.1-0.59-0.3-0.8s-0.43-0.35-0.69-0.45
				c-0.26-0.09-0.69-0.23-1.3-0.42c-1.66-0.53-2.49-1.48-2.49-2.84c0-0.81,0.3-1.51,0.9-2.09c0.6-0.58,1.44-0.87,2.52-0.87
				c0.69,0,1.3,0.09,1.83,0.26s1.02,0.45,1.48,0.82l-0.87,1.34c-0.25-0.27-0.57-0.48-0.95-0.63s-0.75-0.24-1.09-0.26
				c-0.44,0-0.81,0.11-1.12,0.32c-0.31,0.21-0.47,0.5-0.47,0.86c0,0.3,0.1,0.54,0.31,0.74c0.2,0.2,0.41,0.34,0.63,0.42
				s0.65,0.23,1.29,0.43c0.8,0.27,1.42,0.61,1.86,1.03s0.67,0.99,0.67,1.71c0,0.94-0.33,1.71-0.98,2.32
				c-0.66,0.61-1.59,0.91-2.79,0.91C138.73,211.56,138.05,211.44,137.4,211.19z"/>
			<path class="st1" d="M154.88,201.9c0.73,0.44,1.31,1.05,1.74,1.84c0.42,0.79,0.63,1.7,0.63,2.73c0,1.02-0.23,1.91-0.68,2.69
				c-0.45,0.77-1.08,1.37-1.88,1.79c-0.8,0.42-1.69,0.63-2.67,0.63c-0.7,0-1.38-0.15-2.02-0.46c-0.64-0.3-1.16-0.71-1.55-1.23v6.12
				h-2.18v-14.54h1.9l0.19,1.64c0.5-0.56,1.1-1.02,1.79-1.36c0.7-0.34,1.45-0.52,2.26-0.52
				C153.33,201.24,154.15,201.46,154.88,201.9z M153.3,209.39c0.52-0.29,0.94-0.69,1.25-1.2c0.31-0.51,0.47-1.07,0.47-1.7
				c0-0.64-0.14-1.22-0.43-1.74c-0.29-0.52-0.68-0.92-1.18-1.22c-0.5-0.3-1.06-0.45-1.67-0.45c-0.83,0-1.54,0.23-2.12,0.69
				c-0.59,0.46-0.97,1.08-1.16,1.87v1.62c0.12,0.75,0.48,1.36,1.07,1.84c0.59,0.48,1.28,0.71,2.08,0.71
				C152.21,209.83,152.78,209.68,153.3,209.39z"/>
			<path class="st1" d="M160.03,203.79c0.46-0.79,1.1-1.41,1.92-1.86c0.82-0.45,1.75-0.68,2.78-0.68c1.03,0,1.95,0.23,2.76,0.68
				c0.8,0.45,1.43,1.07,1.88,1.85c0.45,0.78,0.67,1.66,0.67,2.63c0,0.97-0.22,1.85-0.67,2.64c-0.45,0.79-1.08,1.41-1.89,1.86
				c-0.81,0.45-1.74,0.68-2.79,0.68c-1.02,0-1.93-0.21-2.74-0.64c-0.81-0.43-1.45-1.04-1.91-1.82s-0.69-1.69-0.69-2.72
				C159.34,205.45,159.57,204.58,160.03,203.79z M161.96,208.11c0.27,0.52,0.65,0.92,1.13,1.22s1,0.45,1.58,0.45
				c0.91,0,1.66-0.32,2.25-0.96c0.59-0.64,0.89-1.44,0.89-2.39c0-0.95-0.3-1.75-0.89-2.4c-0.59-0.65-1.35-0.97-2.25-0.97
				c-0.59,0-1.13,0.15-1.59,0.46s-0.84,0.72-1.11,1.23s-0.41,1.08-0.41,1.69S161.68,207.6,161.96,208.11z"/>
			<path class="st1" d="M176.14,202.53c0.46-0.41,0.95-0.72,1.47-0.94c0.52-0.22,0.97-0.34,1.36-0.35l-0.09,2.18
				c-0.7-0.03-1.34,0.11-1.91,0.42c-0.57,0.31-1.02,0.75-1.34,1.3c-0.32,0.56-0.48,1.15-0.48,1.77v4.43h-2.18v-9.71h1.95l0.17,2.3
				C175.33,203.41,175.68,202.94,176.14,202.53z"/>
			<path class="st1" d="M184.93,197.37v4.29h2.65v1.74h-2.65v7.95h-2.2v-7.95h-1.78v-1.74h1.78v-4.29H184.93z"/>
			<path class="st1" d="M197.14,208.86l1.01,1.62c-0.52,0.34-1.08,0.61-1.68,0.81s-1.18,0.29-1.75,0.29c-1.08,0-2.02-0.22-2.83-0.67
				c-0.8-0.45-1.43-1.06-1.86-1.84s-0.66-1.67-0.66-2.65c0-0.95,0.24-1.83,0.71-2.62c0.48-0.79,1.13-1.41,1.96-1.88
				c0.83-0.46,1.74-0.69,2.72-0.69c1.27,0,2.33,0.37,3.18,1.11c0.85,0.74,1.43,1.78,1.75,3.11l-7.69,2.7
				c0.28,0.49,0.66,0.86,1.14,1.14s1.02,0.41,1.63,0.41C195.59,209.71,196.38,209.43,197.14,208.86z M192.41,203.92
				c-0.58,0.63-0.87,1.42-0.87,2.39c0,0.23,0.01,0.41,0.02,0.54l5.65-2.09c-0.23-0.53-0.57-0.96-1-1.29s-0.97-0.49-1.61-0.49
				C193.72,202.98,192.99,203.29,192.41,203.92z"/>
			<path class="st1" d="M203.11,211.19c-0.65-0.25-1.18-0.62-1.58-1.1l0.94-1.27c0.39,0.38,0.8,0.66,1.23,0.87s0.86,0.3,1.28,0.3
				c0.52,0,0.94-0.1,1.27-0.3c0.33-0.2,0.49-0.52,0.49-0.94c0-0.33-0.1-0.59-0.3-0.8s-0.43-0.35-0.69-0.45
				c-0.26-0.09-0.69-0.23-1.3-0.42c-1.66-0.53-2.49-1.48-2.49-2.84c0-0.81,0.3-1.51,0.9-2.09c0.6-0.58,1.44-0.87,2.52-0.87
				c0.69,0,1.3,0.09,1.83,0.26s1.02,0.45,1.48,0.82l-0.87,1.34c-0.25-0.27-0.57-0.48-0.95-0.63s-0.75-0.24-1.09-0.26
				c-0.44,0-0.81,0.11-1.12,0.32c-0.31,0.21-0.47,0.5-0.47,0.86c0,0.3,0.1,0.54,0.31,0.74c0.2,0.2,0.41,0.34,0.63,0.42
				s0.65,0.23,1.29,0.43c0.8,0.27,1.42,0.61,1.86,1.03s0.67,0.99,0.67,1.71c0,0.94-0.33,1.71-0.98,2.32
				c-0.66,0.61-1.59,0.91-2.79,0.91C204.45,211.56,203.76,211.44,203.11,211.19z"/>
			<path class="st1" d="M222.21,194.39v14.75h8.63v2.2h-10.91v-16.96H222.21z"/>
			<path class="st1" d="M233.83,203.79c0.46-0.79,1.1-1.41,1.92-1.86c0.82-0.45,1.75-0.68,2.78-0.68c1.03,0,1.95,0.23,2.76,0.68
				c0.8,0.45,1.43,1.07,1.88,1.85c0.45,0.78,0.67,1.66,0.67,2.63c0,0.97-0.22,1.85-0.67,2.64c-0.45,0.79-1.08,1.41-1.89,1.86
				c-0.81,0.45-1.74,0.68-2.79,0.68c-1.02,0-1.93-0.21-2.74-0.64c-0.81-0.43-1.45-1.04-1.91-1.82s-0.69-1.69-0.69-2.72
				C233.14,205.45,233.37,204.58,233.83,203.79z M235.76,208.11c0.27,0.52,0.65,0.92,1.13,1.22s1,0.45,1.58,0.45
				c0.91,0,1.66-0.32,2.25-0.96c0.59-0.64,0.89-1.44,0.89-2.39c0-0.95-0.3-1.75-0.89-2.4c-0.59-0.65-1.35-0.97-2.25-0.97
				c-0.59,0-1.13,0.15-1.59,0.46s-0.84,0.72-1.11,1.23s-0.41,1.08-0.41,1.69S235.48,207.6,235.76,208.11z"/>
			<path class="st1" d="M257.02,201.64v9.78c0,0.89-0.23,1.7-0.68,2.42c-0.45,0.72-1.1,1.29-1.93,1.71
				c-0.84,0.42-1.82,0.63-2.94,0.63c-0.98,0-1.83-0.16-2.54-0.49c-0.71-0.33-1.43-0.81-2.15-1.45l1.29-1.5
				c0.53,0.5,1.06,0.88,1.59,1.14s1.12,0.39,1.76,0.39c1.08,0,1.91-0.26,2.5-0.77c0.59-0.52,0.89-1.21,0.9-2.09l0.02-1.83
				c-0.36,0.61-0.89,1.1-1.58,1.47c-0.7,0.37-1.5,0.55-2.4,0.55c-0.89,0-1.71-0.23-2.46-0.68c-0.75-0.45-1.35-1.07-1.79-1.85
				s-0.67-1.65-0.67-2.6c0-0.99,0.23-1.87,0.69-2.66c0.46-0.79,1.08-1.41,1.86-1.86c0.78-0.45,1.62-0.68,2.51-0.68
				c0.83,0,1.59,0.16,2.3,0.49c0.7,0.33,1.23,0.75,1.57,1.27l0.17-1.36H257.02z M253.64,209.1c0.61-0.45,1.01-1.05,1.2-1.78v-1.92
				c-0.22-0.7-0.63-1.27-1.24-1.7c-0.61-0.43-1.31-0.64-2.11-0.64c-0.95,0-1.75,0.31-2.39,0.94c-0.64,0.63-0.96,1.42-0.96,2.39
				c0,0.63,0.15,1.2,0.45,1.71s0.7,0.93,1.22,1.23c0.52,0.3,1.08,0.46,1.69,0.46C252.31,209.78,253.03,209.55,253.64,209.1z"/>
			<path class="st1" d="M261.05,197.28c0.27-0.23,0.57-0.35,0.92-0.35s0.64,0.12,0.9,0.35c0.26,0.23,0.39,0.52,0.39,0.87
				s-0.13,0.63-0.39,0.87c-0.26,0.23-0.56,0.35-0.9,0.35s-0.65-0.12-0.92-0.35s-0.4-0.52-0.4-0.87S260.79,197.51,261.05,197.28z
				 M263,201.64v9.71h-2.18v-9.71H263z"/>
			<path class="st1" d="M267.49,211.19c-0.65-0.25-1.18-0.62-1.58-1.1l0.94-1.27c0.39,0.38,0.8,0.66,1.23,0.87s0.86,0.3,1.28,0.3
				c0.52,0,0.94-0.1,1.27-0.3c0.33-0.2,0.49-0.52,0.49-0.94c0-0.33-0.1-0.59-0.3-0.8s-0.43-0.35-0.69-0.45
				c-0.26-0.09-0.69-0.23-1.3-0.42c-1.66-0.53-2.49-1.48-2.49-2.84c0-0.81,0.3-1.51,0.9-2.09c0.6-0.58,1.44-0.87,2.52-0.87
				c0.69,0,1.3,0.09,1.83,0.26s1.02,0.45,1.48,0.82l-0.87,1.34c-0.25-0.27-0.57-0.48-0.95-0.63s-0.75-0.24-1.09-0.26
				c-0.44,0-0.81,0.11-1.12,0.32c-0.31,0.21-0.47,0.5-0.47,0.86c0,0.3,0.1,0.54,0.31,0.74c0.2,0.2,0.41,0.34,0.63,0.42
				s0.65,0.23,1.29,0.43c0.8,0.27,1.42,0.61,1.86,1.03s0.67,0.99,0.67,1.71c0,0.94-0.33,1.71-0.98,2.32
				c-0.66,0.61-1.59,0.91-2.79,0.91C268.82,211.56,268.14,211.44,267.49,211.19z"/>
			<path class="st1" d="M279.51,197.37v4.29h2.65v1.74h-2.65v7.95h-2.2v-7.95h-1.78v-1.74h1.78v-4.29H279.51z"/>
			<path class="st1" d="M285.04,197.28c0.27-0.23,0.57-0.35,0.92-0.35s0.64,0.12,0.9,0.35c0.26,0.23,0.39,0.52,0.39,0.87
				s-0.13,0.63-0.39,0.87c-0.26,0.23-0.56,0.35-0.9,0.35s-0.65-0.12-0.92-0.35s-0.4-0.52-0.4-0.87S284.78,197.51,285.04,197.28z
				 M286.99,201.64v9.71h-2.18v-9.71H286.99z"/>
			<path class="st1" d="M297.11,211.28c-0.6,0.2-1.22,0.3-1.84,0.3c-1.05,0-1.97-0.21-2.78-0.63c-0.8-0.42-1.43-1.02-1.88-1.79
				c-0.45-0.77-0.67-1.67-0.67-2.69c0-1,0.23-1.89,0.7-2.66c0.47-0.77,1.09-1.37,1.88-1.79c0.78-0.42,1.63-0.63,2.53-0.63
				c1.49,0,2.71,0.41,3.68,1.22l-1.1,1.43c-0.31-0.24-0.67-0.43-1.08-0.6c-0.41-0.16-0.84-0.25-1.31-0.25
				c-0.58,0-1.11,0.14-1.58,0.43c-0.48,0.29-0.85,0.68-1.13,1.18c-0.27,0.5-0.41,1.06-0.41,1.67s0.14,1.17,0.43,1.67
				c0.29,0.5,0.68,0.9,1.18,1.2s1.07,0.45,1.71,0.45c0.8,0,1.49-0.23,2.09-0.7l1.12,1.36C298.23,210.79,297.71,211.08,297.11,211.28
				z"/>
			<path class="st1" d="M301.33,203.79c0.46-0.79,1.1-1.41,1.92-1.86c0.82-0.45,1.75-0.68,2.78-0.68c1.03,0,1.95,0.23,2.76,0.68
				c0.8,0.45,1.43,1.07,1.88,1.85c0.45,0.78,0.67,1.66,0.67,2.63c0,0.97-0.22,1.85-0.67,2.64c-0.45,0.79-1.08,1.41-1.89,1.86
				c-0.81,0.45-1.74,0.68-2.79,0.68c-1.02,0-1.93-0.21-2.74-0.64c-0.81-0.43-1.45-1.04-1.91-1.82s-0.69-1.69-0.69-2.72
				C300.64,205.45,300.87,204.58,301.33,203.79z M303.25,208.11c0.27,0.52,0.65,0.92,1.13,1.22s1,0.45,1.58,0.45
				c0.91,0,1.66-0.32,2.25-0.96c0.59-0.64,0.89-1.44,0.89-2.39c0-0.95-0.3-1.75-0.89-2.4c-0.59-0.65-1.35-0.97-2.25-0.97
				c-0.59,0-1.13,0.15-1.59,0.46s-0.84,0.72-1.11,1.23s-0.41,1.08-0.41,1.69S302.98,207.6,303.25,208.11z"/>
			<path class="st1" d="M314.96,211.19c-0.65-0.25-1.18-0.62-1.58-1.1l0.94-1.27c0.39,0.38,0.8,0.66,1.23,0.87s0.86,0.3,1.28,0.3
				c0.52,0,0.94-0.1,1.27-0.3c0.33-0.2,0.49-0.52,0.49-0.94c0-0.33-0.1-0.59-0.3-0.8s-0.43-0.35-0.69-0.45
				c-0.26-0.09-0.69-0.23-1.3-0.42c-1.66-0.53-2.49-1.48-2.49-2.84c0-0.81,0.3-1.51,0.9-2.09c0.6-0.58,1.44-0.87,2.52-0.87
				c0.69,0,1.3,0.09,1.83,0.26s1.02,0.45,1.48,0.82l-0.87,1.34c-0.25-0.27-0.57-0.48-0.95-0.63s-0.75-0.24-1.09-0.26
				c-0.44,0-0.81,0.11-1.12,0.32c-0.31,0.21-0.47,0.5-0.47,0.86c0,0.3,0.1,0.54,0.31,0.74c0.2,0.2,0.41,0.34,0.63,0.42
				s0.65,0.23,1.29,0.43c0.8,0.27,1.42,0.61,1.86,1.03s0.67,0.99,0.67,1.71c0,0.94-0.33,1.71-0.98,2.32
				c-0.66,0.61-1.59,0.91-2.79,0.91C316.29,211.56,315.6,211.44,314.96,211.19z"/>
		</g>
	</g>
	<polygon class="st2" points="295.86,99.43 325.08,128.65 325.08,160.62 295.86,160.62 	"/>
	<path class="st2" d="M147.93,111.59v48.86h-29.15v-7.89c-8.91,5.32-19.2,8.06-29.66,8.06c-15.77,0-30.52-6.17-41.66-17.32
		c-11.14-11.14-17.32-25.89-17.32-41.66c0-8.92,1.89-17.49,5.66-25.37l1.37-3.09l22.63,22.63l-0.17,1.2
		c-0.17,1.54-0.34,3.09-0.34,4.63c0,7.89,3.09,15.26,8.74,20.92c5.66,5.66,13.03,8.74,20.92,8.74c6.17,0,12-1.89,16.97-5.31
		L95.3,111.24L147.93,111.59z M63.58,86.04L42.66,65.12l1.37-1.71c11.14-13.2,27.6-20.75,44.92-20.75c12,0,23.49,3.6,33.26,10.46
		c12.34,8.4,20.92,21.09,24.17,35.66l0.69,2.91H116.9l-0.69-1.37c-1.54-3.6-3.77-6.86-6.52-9.6c-5.66-5.66-13.03-8.74-20.92-8.74
		s-15.26,3.09-20.92,8.74c-1.03,1.03-2.06,2.23-2.92,3.43L63.58,86.04z"/>
	<polygon class="st2" points="274.08,42.83 274.08,160.62 244.94,160.62 244.94,108.67 215.28,138.5 185.61,108.67 156.47,79.52 
		156.47,42.83 161.1,42.83 215.45,97.18 269.8,42.83 	"/>
	<polygon class="st3" points="156.64,92.9 185.79,122.04 185.79,160.62 156.64,160.62 	"/>
	<polyline class="st3" points="361.08,42.66 281.79,42.66 281.79,71.89 295.78,71.89 295.78,86.15 325,115.38 325,71.89 
		361.08,71.89 	"/>
</g>
</svg>
