<?xml version="1.0" encoding="utf-8"?>
<!-- Generator: Adobe Illustrator 26.2.1, SVG Export Plug-In . SVG Version: 6.00 Build 0)  -->
<svg version="1.1" id="Capa_1" xmlns="http://www.w3.org/2000/svg" xmlns:xlink="http://www.w3.org/1999/xlink" x="0px" y="0px"
	 viewBox="0 0 200 100" style="enable-background:new 0 0 200 100;" xml:space="preserve">
<style type="text/css">
	.st0{fill:#FFD26B;}
	.st1{fill:#4E4D4D;}
	.st2{fill-rule:evenodd;clip-rule:evenodd;fill:#FFFFFF;}
	.st3{fill:#EF7C61;}
	.st4{fill-rule:evenodd;clip-rule:evenodd;fill:url(#SVGID_1_);}
	.st5{opacity:0.59;}
	.st6{clip-path:url(#SVGID_00000093156034325409071580000016995970275342610565_);}
	.st7{fill:none;stroke:#FFFFFF;stroke-width:0.25;stroke-miterlimit:10;}
	.st8{fill:#E10F1A;stroke:#FFFFFF;stroke-width:0.25;stroke-miterlimit:10;}
	.st9{fill:#FFFFFF;stroke:#FFFFFF;stroke-width:0.25;stroke-miterlimit:10;}
</style>
<g>
	<g>
		<g>
			<path class="st0" d="M132.55,69.42c-0.87,0-1.57,0.72-1.57,1.63c0,0.91,0.7,1.63,1.57,1.63c0.88,0,1.57-0.72,1.57-1.63
				C134.13,70.14,133.43,69.42,132.55,69.42z M196.38,65.97h-77.94c-1.3,0-2.36,1.06-2.36,2.36v5.46c0,1.3,1.06,2.36,2.36,2.36
				h77.94c1.3,0,2.36-1.06,2.36-2.36v-5.46C198.74,67.02,197.68,65.97,196.38,65.97z M128.18,73.44c-0.83,0-1.45-0.62-1.45-1.08
				c0-0.21,0.17-0.38,0.38-0.38c0.18,0,0.28,0.1,0.34,0.22c0.09,0.22,0.28,0.52,0.73,0.52c0.4,0,0.69-0.31,0.69-0.66
				c0-0.42-0.36-0.58-0.71-0.68l-0.34-0.1c-0.46-0.14-1.05-0.44-1.05-1.31c0-0.74,0.61-1.28,1.41-1.28c0.84,0,1.38,0.59,1.38,1.03
				c0,0.21-0.17,0.38-0.38,0.38c-0.18,0-0.27-0.1-0.32-0.22c-0.09-0.21-0.27-0.47-0.68-0.47c-0.37,0-0.63,0.28-0.63,0.61
				c0,0.4,0.38,0.56,0.65,0.64l0.29,0.09c0.49,0.15,1.15,0.42,1.15,1.37C129.65,72.85,129.01,73.44,128.18,73.44z M132.55,73.44
				c-1.32,0-2.37-1.05-2.37-2.38c0-1.33,1.05-2.38,2.37-2.38c1.33,0,2.38,1.05,2.38,2.38C134.93,72.39,133.88,73.44,132.55,73.44z
				 M137.81,73.37h-1.79c-0.21,0-0.39-0.18-0.39-0.39v-3.91c0-0.22,0.18-0.39,0.39-0.39c0.21,0,0.39,0.17,0.39,0.39v3.57h1.4
				c0.2,0,0.36,0.16,0.36,0.36C138.16,73.21,138.01,73.37,137.81,73.37z M141.91,71.61c0,1.1-0.77,1.83-1.75,1.83
				c-0.97,0-1.74-0.72-1.74-1.83v-2.54c0-0.22,0.18-0.39,0.39-0.39c0.21,0,0.39,0.17,0.39,0.39v2.59c0,0.68,0.42,1.05,0.96,1.05
				c0.55,0,0.97-0.38,0.97-1.05v-2.59c0-0.22,0.18-0.39,0.39-0.39c0.21,0,0.39,0.17,0.39,0.39V71.61z M145.32,69.46h-0.88v3.58
				c0,0.21-0.18,0.39-0.39,0.39c-0.21,0-0.39-0.18-0.39-0.39v-3.58h-0.88c-0.2,0-0.36-0.16-0.36-0.36c0-0.2,0.16-0.36,0.36-0.36
				h2.54c0.21,0,0.36,0.16,0.36,0.36C145.68,69.3,145.53,69.46,145.32,69.46z M146.97,73.04c0,0.21-0.18,0.39-0.39,0.39
				c-0.21,0-0.39-0.18-0.39-0.39v-3.97c0-0.22,0.18-0.39,0.39-0.39c0.21,0,0.39,0.17,0.39,0.39V73.04z M150.04,73.44
				c-1.32,0-2.37-1.05-2.37-2.38c0-1.33,1.05-2.38,2.37-2.38c1.33,0,2.38,1.05,2.38,2.38C152.42,72.39,151.37,73.44,150.04,73.44z
				 M156.73,73.04c0,0.21-0.17,0.39-0.38,0.39c-0.22,0-0.39-0.18-0.39-0.39v-0.48l-2.06-2.46v2.94c0,0.21-0.18,0.39-0.39,0.39
				c-0.21,0-0.39-0.18-0.39-0.39v-3.95c0-0.23,0.18-0.41,0.4-0.41c0.13,0,0.25,0.06,0.31,0.14l2.12,2.53v-2.28
				c0-0.22,0.17-0.39,0.39-0.39c0.21,0,0.38,0.17,0.38,0.39V73.04z M161.54,72.68c0.48,0,0.87-0.2,1.15-0.52
				c0.11-0.09,0.21-0.15,0.31-0.15c0.22,0,0.39,0.17,0.39,0.38c0,0.09-0.03,0.19-0.11,0.26c-0.4,0.46-1.03,0.77-1.75,0.77
				c-1.32,0-2.37-1.05-2.37-2.38c0-1.33,1.05-2.38,2.37-2.38c0.72,0,1.34,0.31,1.75,0.77c0.07,0.07,0.11,0.18,0.11,0.26
				c0,0.21-0.17,0.38-0.39,0.38c-0.1,0-0.21-0.06-0.31-0.15c-0.28-0.31-0.67-0.52-1.15-0.52c-0.87,0-1.57,0.72-1.57,1.63
				C159.97,71.96,160.67,72.68,161.54,72.68z M167.09,73.43c-0.12,0-0.22-0.05-0.3-0.15l-1.55-1.84c-0.05-0.07-0.12-0.17-0.12-0.3
				c0-0.2,0.16-0.35,0.35-0.35h0.15c0.4,0,0.67-0.3,0.67-0.66c0-0.37-0.28-0.67-0.67-0.67h-0.71v3.58c0,0.21-0.18,0.39-0.39,0.39
				c-0.21,0-0.39-0.18-0.39-0.39v-3.92c0-0.21,0.18-0.38,0.39-0.38h1.12c0.87,0,1.46,0.62,1.46,1.39c0,0.64-0.4,1.07-0.86,1.18
				l-0.09,0.01l1.23,1.47c0.07,0.09,0.09,0.17,0.09,0.26C167.47,73.26,167.3,73.43,167.09,73.43z M170.17,70.69
				c0.2,0,0.36,0.16,0.36,0.36c0,0.2-0.16,0.36-0.36,0.36h-1.4v1.23h1.4c0.2,0,0.36,0.16,0.36,0.36c0,0.2-0.16,0.36-0.36,0.36h-1.79
				c-0.21,0-0.39-0.18-0.39-0.39v-3.86c0-0.21,0.18-0.38,0.39-0.38h1.79c0.2,0,0.36,0.16,0.36,0.36c0,0.21-0.16,0.36-0.36,0.36h-1.4
				v1.23H170.17z M175.02,73.04c0,0.21-0.17,0.39-0.38,0.39c-0.22,0-0.39-0.18-0.39-0.39V72.4h-0.9c-0.21,0-0.36-0.16-0.36-0.36
				c0-0.2,0.16-0.36,0.36-0.36h0.9v-1.61l-2.71,3.24c-0.07,0.07-0.18,0.13-0.28,0.13c-0.2,0-0.36-0.17-0.36-0.36
				c0-0.08,0.02-0.15,0.09-0.24l3.35-4c0.1-0.11,0.21-0.15,0.32-0.15c0.21,0,0.38,0.17,0.38,0.39V73.04z M178.43,69.46h-0.88v3.58
				c0,0.21-0.18,0.39-0.39,0.39c-0.21,0-0.39-0.18-0.39-0.39v-3.58h-0.88c-0.2,0-0.36-0.16-0.36-0.36c0-0.2,0.16-0.36,0.36-0.36
				h2.54c0.21,0,0.36,0.16,0.36,0.36C178.8,69.3,178.64,69.46,178.43,69.46z M180.08,73.04c0,0.21-0.18,0.39-0.39,0.39
				c-0.21,0-0.39-0.18-0.39-0.39v-3.97c0-0.22,0.18-0.39,0.39-0.39c0.21,0,0.39,0.17,0.39,0.39V73.04z M184.97,69.28l-3.35,4
				c-0.09,0.12-0.2,0.16-0.31,0.16c-0.21,0-0.39-0.18-0.39-0.39v-3.97c0-0.22,0.18-0.39,0.39-0.39c0.21,0,0.39,0.17,0.39,0.39v2.98
				l2.71-3.24c0.07-0.09,0.18-0.13,0.28-0.13c0.21,0,0.36,0.16,0.36,0.36C185.06,69.12,185.05,69.2,184.97,69.28z M187.73,70.69
				c0.2,0,0.36,0.16,0.36,0.36c0,0.2-0.16,0.36-0.36,0.36h-1.4v1.23h1.4c0.2,0,0.36,0.16,0.36,0.36c0,0.2-0.16,0.36-0.36,0.36h-1.79
				c-0.21,0-0.39-0.18-0.39-0.39v-3.86c0-0.21,0.18-0.38,0.39-0.38h1.79c0.2,0,0.36,0.16,0.36,0.36c0,0.21-0.16,0.36-0.36,0.36h-1.4
				v1.23H187.73z M150.04,69.42c-0.87,0-1.57,0.72-1.57,1.63c0,0.91,0.69,1.63,1.57,1.63c0.88,0,1.57-0.72,1.57-1.63
				C151.62,70.14,150.92,69.42,150.04,69.42z"/>
		</g>
	</g>
	<path class="st1" d="M152.73,58.54l-13-10.21l8.1-6.16c1.36-1.03,1.62-2.97,0.59-4.33c-1.03-1.36-2.97-1.62-4.33-0.59l-6.32,4.81
		V35.7c0-1.71-1.38-3.09-3.09-3.09c-1.71,0-3.09,1.38-3.09,3.09v25.27c0,1.71,1.38,3.09,3.09,3.09c1.71,0,3.09-1.38,3.09-3.09v-6.33
		l11.15,8.76c0.57,0.44,1.24,0.66,1.91,0.66c0.92,0,1.82-0.41,2.43-1.18C154.3,61.54,154.07,59.6,152.73,58.54z"/>
	<path class="st1" d="M166.47,64.34c-0.67,0-1.33-0.22-1.88-0.63l-16.96-12.96c-0.85-0.65-1.3-1.68-1.2-2.74
		c0.1-1.06,0.74-1.99,1.69-2.47l16.96-8.52c0.96-0.48,2.1-0.43,3.01,0.13s1.47,1.56,1.47,2.63v21.48c0,1.17-0.67,2.25-1.72,2.77
		C167.4,64.24,166.94,64.34,166.47,64.34z M155.31,48.83l8.07,6.17V44.78L155.31,48.83z"/>
	<path class="st1" d="M198.71,39.49c0-1.1-0.59-2.12-1.54-2.67c-0.95-0.55-2.13-0.55-3.08-0.01l-8.37,4.79l-8.38-4.79
		c-0.96-0.55-2.13-0.54-3.08,0.01c-0.95,0.55-1.54,1.57-1.54,2.67v21.48c0,0.82,0.33,1.61,0.91,2.19c0.58,0.58,1.36,0.9,2.18,0.9
		c0,0,0.01,0,0.01,0l5.54-0.02c1.71-0.01,3.08-1.4,3.07-3.1c-0.01-1.7-1.39-3.07-3.09-3.07c0,0-0.01,0-0.01,0l-2.43,0.01V44.81
		l5.3,3.03c0.02,0.01,0.04,0.02,0.07,0.03c0.05,0.03,0.11,0.06,0.16,0.08c0.04,0.02,0.08,0.04,0.13,0.05
		c0.05,0.02,0.1,0.04,0.15,0.06c0.05,0.02,0.1,0.03,0.15,0.05c0.04,0.01,0.09,0.03,0.13,0.04c0.05,0.01,0.11,0.02,0.16,0.04
		c0.04,0.01,0.09,0.02,0.14,0.02c0.05,0.01,0.1,0.01,0.16,0.02c0.05,0,0.1,0.01,0.15,0.01c0.05,0,0.09,0,0.14,0
		c0.06,0,0.11,0,0.17,0c0.04,0,0.08,0,0.12-0.01c0.06-0.01,0.12-0.01,0.18-0.02c0.04-0.01,0.07-0.01,0.11-0.02
		c0.06-0.01,0.12-0.03,0.18-0.04c0.04-0.01,0.08-0.02,0.11-0.03c0.06-0.02,0.11-0.03,0.17-0.05c0.04-0.02,0.09-0.03,0.13-0.05
		c0.05-0.02,0.09-0.04,0.14-0.06c0.05-0.02,0.1-0.05,0.15-0.08c0.02-0.01,0.05-0.02,0.07-0.04l5.28-3.02l0.02,13.06l-2.43-0.01
		c0,0-0.01,0-0.01,0c-1.7,0-3.08,1.37-3.09,3.07c-0.01,1.71,1.37,3.09,3.07,3.1l5.54,0.02c0,0,0.01,0,0.01,0
		c0.82,0,1.6-0.32,2.18-0.9c0.58-0.58,0.91-1.37,0.91-2.19L198.71,39.49z"/>
	<path class="st1" d="M99.75,57.88H92l0.03-6.51h4.83c1.71,0,3.09-1.38,3.09-3.09s-1.38-3.09-3.09-3.09h-4.8l0.01-2.62h6.81
		c1.71,0,3.09-1.38,3.09-3.09c0-1.71-1.38-3.09-3.09-3.09H89c-1.7,0-3.08,1.37-3.09,3.07L85.8,60.96c0,0.82,0.32,1.61,0.9,2.19
		c0.58,0.58,1.37,0.91,2.19,0.91h10.86c1.71,0,3.09-1.38,3.09-3.09S101.46,57.88,99.75,57.88z"/>
	<path class="st1" d="M117.09,36.54h-5.41h-0.02h-5.54c-1.71,0-3.09,1.38-3.09,3.09s1.38,3.09,3.09,3.09h2.43l-0.09,18.37
		c-0.01,1.71,1.37,3.09,3.07,3.1c0.01,0,0.01,0,0.02,0c1.7,0,3.08-1.37,3.09-3.07l0.09-18.41h2.35c1.71,0,3.09-1.38,3.09-3.09
		S118.8,36.54,117.09,36.54z"/>
	<path class="st1" d="M68.21,64.2c-1.71,0-3.09-1.38-3.09-3.09V39.49c0-1.42,0.97-2.66,2.35-3c1.38-0.34,2.81,0.31,3.47,1.57
		l5.4,10.34V35.61c0-1.71,1.38-3.09,3.09-3.09c1.71,0,3.09,1.38,3.09,3.09v25.36c0,1.42-0.97,2.66-2.35,3
		c-1.38,0.34-2.81-0.31-3.47-1.57l-5.4-10.34v9.04C71.29,62.81,69.91,64.2,68.21,64.2z"/>
	<g>
		<circle class="st2" cx="29.95" cy="50" r="22.79"/>
	</g>
	<path class="st1" d="M125.32,64.2c0,0-0.01,0-0.02,0c-1.66-0.01-3.01-1.31-3-2.91l0.12-21.82c0.01-1.59,1.36-2.88,3.01-2.88
		c0,0,0.01,0,0.02,0c1.66,0.01,3.01,1.31,3,2.91l-0.12,21.82C128.33,62.91,126.98,64.2,125.32,64.2z"/>
	<ellipse class="st0" cx="79.41" cy="35.56" rx="2.98" ry="2.95"/>
	<circle class="st3" cx="125.44" cy="39.63" r="2.95"/>
	<circle class="st0" cx="190.09" cy="60.95" r="2.95"/>
	<linearGradient id="SVGID_1_" gradientUnits="userSpaceOnUse" x1="1.2632" y1="50" x2="58.6302" y2="50">
		<stop  offset="0.0677" style="stop-color:#884896"/>
		<stop  offset="0.1071" style="stop-color:#A14895"/>
		<stop  offset="0.1632" style="stop-color:#BD4894"/>
		<stop  offset="0.2186" style="stop-color:#D14693"/>
		<stop  offset="0.2721" style="stop-color:#DE4592"/>
		<stop  offset="0.3229" style="stop-color:#E74491"/>
		<stop  offset="0.3684" style="stop-color:#E94391"/>
		<stop  offset="0.8089" style="stop-color:#EF7C60"/>
		<stop  offset="0.8433" style="stop-color:#F08061"/>
		<stop  offset="0.8803" style="stop-color:#F18B63"/>
		<stop  offset="0.9185" style="stop-color:#F49D66"/>
		<stop  offset="0.9575" style="stop-color:#F9B468"/>
		<stop  offset="0.9967" style="stop-color:#FED069"/>
		<stop  offset="1" style="stop-color:#FFD269"/>
	</linearGradient>
	<path class="st4" d="M29.95,21.32C14.11,21.32,1.26,34.16,1.26,50c0,15.84,12.84,28.68,28.68,28.68
		c15.84,0,28.68-12.84,28.68-28.68C58.63,34.16,45.79,21.32,29.95,21.32z M21.28,38.61c1.35-0.25,2.67,0.64,2.91,1.97
		c0.24,1.33-0.67,2.62-2.03,2.87c-1.38,0.25-2.69-0.64-2.93-1.97C18.99,40.16,19.9,38.86,21.28,38.61z M38.63,67.57
		c-0.46,0.23-0.97,0.35-1.47,0.35c-0.72,0-1.43-0.22-2.02-0.67L13.79,51.09c-0.91-0.69-1.4-1.8-1.3-2.94
		c0.1-1.14,0.78-2.15,1.8-2.66l3.43-1.74c0.85,3.33,4.2,5.49,7.68,4.86c3.65-0.66,6.09-4.12,5.44-7.71
		c-0.21-1.18-0.74-2.22-1.48-3.07l6.15-3.13c1.03-0.52,2.25-0.48,3.23,0.12c0.98,0.6,1.59,1.67,1.59,2.82l0.13,26.95
		C40.47,65.85,39.76,67.01,38.63,67.57z"/>
	<g class="st5">
		<defs>
			<circle id="SVGID_00000181792985194472596850000012070627686878407340_" class="st5" cx="29.95" cy="50" r="28.6"/>
		</defs>
		<clipPath id="SVGID_00000100373380622879181030000006237146561147733916_">
			<use xlink:href="#SVGID_00000181792985194472596850000012070627686878407340_"  style="overflow:visible;"/>
		</clipPath>
		<g style="clip-path:url(#SVGID_00000100373380622879181030000006237146561147733916_);">
			<g>
				<polyline class="st7" points="-10.13,60.26 -7.98,57.98 -1.55,57.98 1.13,61.07 16.55,61.07 19.57,64.08 31.7,64.08 
					33.94,66.33 				"/>
				<polyline class="st7" points="-12.82,54.8 -1.51,54.8 1.4,57.71 10.48,57.71 13.42,54.77 16.71,54.77 18.92,56.98 				"/>
				<polyline class="st7" points="15.11,57.98 16.86,57.98 19.83,60.95 28.7,60.95 31.72,57.93 41.18,57.93 44.12,60.88 
					50.14,60.88 52.03,62.76 				"/>
				<line class="st7" x1="5.65" y1="54.77" x2="9.06" y2="54.77"/>
				<line class="st8" x1="2.48" y1="53.83" x2="3.41" y2="52.9"/>
				<polyline class="st7" points="2.48,48.71 4.63,48.71 7.75,51.83 22.76,51.83 25.83,48.76 31.92,54.85 33.57,54.85 				"/>
				<polyline class="st7" points="27.48,53.36 25.72,51.6 23.56,53.75 				"/>
				<line class="st8" x1="26.65" y1="55.78" x2="27.87" y2="56.99"/>
				<polyline class="st7" points="-6.8,60.96 -4.68,60.96 -4.68,64.13 -1.52,64.13 4.25,69.9 13.49,69.9 25.67,82.08 37.85,82.08 
					39.85,80.08 				"/>
				<line class="st8" x1="36.42" y1="79.14" x2="26.65" y2="79.14"/>
				<polyline class="st7" points="24.28,76.05 22.39,76.05 13.26,66.92 4.67,66.92 -0.51,61.75 				"/>
				<polyline class="st7" points="5.65,63.98 13.49,63.98 21.48,71.97 				"/>
				<line class="st8" x1="32.95" y1="73.03" x2="42.83" y2="73.03"/>
				<polyline class="st7" points="32.95,62.16 37.94,67.15 41.06,67.15 44.03,70.11 53.24,70.11 53.24,73.03 56.21,70.06 
					60.7,70.06 				"/>
				<polyline class="st7" points="45.74,66.93 43.79,66.93 40.95,64.09 38.95,64.09 				"/>
				<polyline class="st7" points="39.29,60.96 41.12,60.96 42.87,62.72 				"/>
				<line class="st7" x1="47.79" y1="64.77" x2="49.27" y2="66.24"/>
				<polyline class="st7" points="51.13,65.21 53.05,67.13 58.21,61.97 				"/>
				<line class="st8" x1="54.07" y1="60.96" x2="55.02" y2="60.96"/>
				<line class="st7" x1="42.35" y1="54.85" x2="48.53" y2="54.85"/>
				<polyline class="st7" points="32.95,51.78 34.78,51.78 37.87,54.87 41.02,51.72 50.08,51.72 53.18,54.82 62.25,54.82 
					65.33,57.9 68.47,57.9 74.35,63.78 				"/>
				<polyline class="st7" points="66.64,60.96 68.31,60.96 74.35,67.13 				"/>
				<polyline class="st7" points="69.97,66.93 65.3,66.93 62.19,64.09 60.41,64.09 				"/>
				<circle class="st9" cx="3.87" cy="52.44" r="0.65"/>
				<circle class="st9" cx="1.83" cy="48.71" r="0.65"/>
				<circle class="st9" cx="2.07" cy="54.24" r="0.65"/>
				<circle class="st7" cx="5.12" cy="54.77" r="0.65"/>
				<circle class="st7" cx="5.12" cy="63.98" r="0.65"/>
				<circle class="st7" cx="21.93" cy="72.38" r="0.65"/>
				<circle class="st9" cx="24.8" cy="76.05" r="0.65"/>
				<circle class="st9" cx="25.99" cy="79.14" r="0.65"/>
				<circle class="st9" cx="37.03" cy="79.14" r="0.65"/>
				<circle class="st9" cx="32.3" cy="73.03" r="0.65"/>
				<circle class="st9" cx="34.42" cy="66.8" r="0.65"/>
				<circle class="st9" cx="43.43" cy="73.03" r="0.65"/>
				<circle class="st9" cx="40.43" cy="79.72" r="0.65"/>
				<circle class="st7" cx="9.72" cy="54.77" r="0.65"/>
				<line class="st7" x1="25.69" y1="68.41" x2="29.1" y2="68.41"/>
				<line class="st8" x1="22.52" y1="67.47" x2="23.44" y2="66.54"/>
				<circle class="st9" cx="23.9" cy="66.08" r="0.65"/>
				<circle class="st9" cx="22.1" cy="67.88" r="0.65"/>
				<circle class="st7" cx="25.15" cy="68.41" r="0.65"/>
				<circle class="st7" cx="29.75" cy="68.41" r="0.65"/>
				<circle class="st7" cx="14.45" cy="57.98" r="0.65"/>
				<circle class="st9" cx="19.25" cy="57.47" r="0.65"/>
				<circle class="st7" cx="23.1" cy="54.2" r="0.65"/>
				<circle class="st7" cx="27.92" cy="53.92" r="0.65"/>
				<circle class="st9" cx="34.22" cy="54.85" r="0.65"/>
				<circle class="st7" cx="32.49" cy="61.7" r="0.65"/>
				<circle class="st7" cx="38.64" cy="60.96" r="0.65"/>
				<circle class="st7" cx="43.28" cy="63.33" r="0.65"/>
				<circle class="st9" cx="47.37" cy="64.43" r="0.65"/>
				<circle class="st9" cx="49.71" cy="66.62" r="0.65"/>
				<circle class="st7" cx="50.73" cy="64.77" r="0.65"/>
				<circle class="st7" cx="52.43" cy="63.23" r="0.65"/>
				<circle class="st9" cx="55.67" cy="61" r="0.65"/>
				<circle class="st7" cx="58.66" cy="61.49" r="0.65"/>
				<circle class="st9" cx="59.86" cy="64.05" r="0.65"/>
				<circle class="st9" cx="65.99" cy="60.96" r="0.65"/>
				<g>
					<polyline class="st7" points="63.25,61.97 65.26,63.98 66.86,63.98 					"/>
					<circle class="st7" cx="62.88" cy="61.58" r="0.65"/>
					<circle class="st7" cx="67.51" cy="63.98" r="0.65"/>
				</g>
				<g>
					<polyline class="st7" points="27.15,73.34 29.16,75.35 30.76,75.35 					"/>
					<circle class="st7" cx="26.78" cy="72.95" r="0.65"/>
					<circle class="st7" cx="31.41" cy="75.35" r="0.65"/>
				</g>
				<circle class="st7" cx="61.43" cy="70.06" r="0.65"/>
				<circle class="st9" cx="70.63" cy="66.93" r="0.65"/>
				<circle class="st7" cx="74.72" cy="67.59" r="0.65"/>
				<circle class="st9" cx="74.72" cy="64.27" r="0.65"/>
				<circle class="st9" cx="53.43" cy="61.03" r="0.65"/>
				<g>
					<line class="st7" x1="48.53" y1="57.93" x2="51.63" y2="57.93"/>
					<circle class="st7" cx="52.28" cy="57.93" r="0.65"/>
					<circle class="st7" cx="47.88" cy="57.93" r="0.65"/>
				</g>
				<g>
					<line class="st7" x1="36.55" y1="70.62" x2="39.64" y2="70.62"/>
					<circle class="st7" cx="40.29" cy="70.62" r="0.65"/>
					<circle class="st7" cx="35.89" cy="70.62" r="0.65"/>
				</g>
				<circle class="st7" cx="49.13" cy="54.85" r="0.65"/>
				<circle class="st7" cx="41.73" cy="54.85" r="0.65"/>
				<circle class="st9" cx="46.3" cy="66.93" r="0.65"/>
				<circle class="st9" cx="38.34" cy="64.09" r="0.65"/>
				<circle class="st9" cx="32.3" cy="51.78" r="0.65"/>
				<circle class="st9" cx="26.15" cy="55.27" r="0.65"/>
				<circle class="st9" cx="28.26" cy="57.47" r="0.65"/>
				<line class="st8" x1="42.88" y1="76.8" x2="44.1" y2="78.02"/>
				<circle class="st9" cx="42.37" cy="76.29" r="0.65"/>
				<circle class="st9" cx="44.48" cy="78.49" r="0.65"/>
			</g>
			<g>
				<polyline class="st7" points="74.02,39.24 71.87,41.52 65.44,41.52 62.76,38.44 47.34,38.44 44.32,35.42 32.19,35.42 
					29.95,33.17 				"/>
				<polyline class="st7" points="76.71,44.7 65.4,44.7 62.49,41.79 53.41,41.79 50.47,44.73 47.18,44.73 44.97,42.52 				"/>
				<polyline class="st7" points="48.78,41.52 47.03,41.52 44.06,38.55 35.19,38.55 32.17,41.57 22.71,41.57 19.77,38.62 
					13.75,38.62 11.86,36.74 				"/>
				<line class="st7" x1="58.24" y1="44.73" x2="54.83" y2="44.73"/>
				<line class="st8" x1="61.41" y1="45.68" x2="60.48" y2="46.6"/>
				<polyline class="st7" points="61.41,50.79 59.26,50.79 56.14,47.67 41.13,47.67 38.06,50.74 31.97,44.65 30.32,44.65 				"/>
				<polyline class="st7" points="36.41,46.14 38.17,47.9 40.33,45.75 				"/>
				<line class="st8" x1="37.24" y1="43.73" x2="36.02" y2="42.51"/>
				<line class="st8" x1="66.67" y1="47.72" x2="79.58" y2="47.72"/>
				<polyline class="st7" points="70.69,38.54 68.57,38.54 68.57,35.37 65.41,35.37 59.64,29.6 50.4,29.6 38.22,17.42 26.04,17.42 
					24.04,19.42 				"/>
				<line class="st8" x1="27.47" y1="20.36" x2="37.24" y2="20.36"/>
				<polyline class="st7" points="39.61,23.46 41.5,23.46 50.63,32.58 59.22,32.58 64.4,37.75 				"/>
				<polyline class="st7" points="58.24,35.52 50.4,35.52 42.41,27.53 				"/>
				<line class="st8" x1="30.94" y1="26.47" x2="21.06" y2="26.47"/>
				<polyline class="st7" points="30.94,37.35 25.95,32.35 22.83,32.35 19.86,29.39 10.65,29.39 10.65,26.47 7.68,29.44 3.19,29.44 
									"/>
				<polyline class="st7" points="18.15,32.57 20.1,32.57 22.94,35.41 24.94,35.41 				"/>
				<polyline class="st7" points="24.6,38.54 22.77,38.54 21.02,36.79 				"/>
				<line class="st7" x1="16.1" y1="34.74" x2="14.62" y2="33.26"/>
				<polyline class="st7" points="12.76,34.29 10.84,32.38 5.69,37.54 				"/>
				<line class="st8" x1="9.82" y1="38.54" x2="8.87" y2="38.54"/>
				<line class="st7" x1="21.55" y1="44.65" x2="15.36" y2="44.65"/>
				<polyline class="st7" points="30.94,47.72 29.11,47.72 26.02,44.64 22.87,47.78 13.81,47.78 10.71,44.68 1.64,44.68 -1.44,41.6 
					-4.58,41.6 -10.46,35.73 				"/>
				<polyline class="st7" points="-6.08,32.57 -1.41,32.57 1.7,35.41 3.48,35.41 				"/>
				<circle class="st9" cx="60.02" cy="47.06" r="0.65"/>
				<circle class="st9" cx="62.06" cy="50.79" r="0.65"/>
				<circle class="st9" cx="61.82" cy="45.26" r="0.65"/>
				<circle class="st7" cx="58.77" cy="44.73" r="0.65"/>
				<circle class="st9" cx="80.24" cy="47.72" r="0.65"/>
				<circle class="st9" cx="77.25" cy="44.73" r="0.65"/>
				<circle class="st9" cx="74.41" cy="38.81" r="0.65"/>
				<circle class="st9" cx="71.26" cy="38.54" r="0.65"/>
				<circle class="st9" cx="64.86" cy="38.22" r="0.65"/>
				<circle class="st7" cx="58.77" cy="35.52" r="0.65"/>
				<circle class="st7" cx="41.96" cy="27.12" r="0.65"/>
				<circle class="st9" cx="39.09" cy="23.46" r="0.65"/>
				<circle class="st9" cx="37.9" cy="20.36" r="0.65"/>
				<circle class="st9" cx="26.86" cy="20.36" r="0.65"/>
				<circle class="st9" cx="31.59" cy="26.47" r="0.65"/>
				<circle class="st9" cx="29.47" cy="32.7" r="0.65"/>
				<circle class="st9" cx="20.47" cy="26.47" r="0.65"/>
				<circle class="st9" cx="23.46" cy="19.78" r="0.65"/>
				<circle class="st9" cx="66.02" cy="47.72" r="0.65"/>
				<circle class="st7" cx="54.18" cy="44.73" r="0.65"/>
				<line class="st7" x1="38.2" y1="31.1" x2="34.79" y2="31.1"/>
				<line class="st8" x1="41.37" y1="32.04" x2="40.45" y2="32.96"/>
				<circle class="st9" cx="39.99" cy="33.42" r="0.65"/>
				<circle class="st9" cx="41.79" cy="31.62" r="0.65"/>
				<circle class="st7" cx="38.74" cy="31.1" r="0.65"/>
				<circle class="st7" cx="34.14" cy="31.1" r="0.65"/>
				<circle class="st7" cx="49.44" cy="41.52" r="0.65"/>
				<circle class="st9" cx="44.64" cy="42.04" r="0.65"/>
				<circle class="st7" cx="40.79" cy="45.3" r="0.65"/>
				<circle class="st7" cx="35.97" cy="45.59" r="0.65"/>
				<circle class="st9" cx="29.67" cy="44.65" r="0.65"/>
				<circle class="st7" cx="31.4" cy="37.81" r="0.65"/>
				<circle class="st7" cx="25.25" cy="38.54" r="0.65"/>
				<circle class="st7" cx="20.62" cy="36.17" r="0.65"/>
				<circle class="st9" cx="16.52" cy="35.07" r="0.65"/>
				<circle class="st9" cx="14.18" cy="32.89" r="0.65"/>
				<circle class="st7" cx="13.16" cy="34.74" r="0.65"/>
				<circle class="st7" cx="11.46" cy="36.27" r="0.65"/>
				<circle class="st9" cx="8.22" cy="38.5" r="0.65"/>
				<circle class="st7" cx="5.23" cy="38.02" r="0.65"/>
				<circle class="st9" cx="4.03" cy="35.46" r="0.65"/>
				<g>
					<polyline class="st7" points="0.64,37.54 -1.37,35.52 -2.97,35.52 					"/>
					<circle class="st7" cx="1.01" cy="37.92" r="0.65"/>
				</g>
				<g>
					<polyline class="st7" points="36.74,26.17 34.73,24.15 33.13,24.15 					"/>
					<circle class="st7" cx="37.11" cy="26.55" r="0.65"/>
					<circle class="st7" cx="32.48" cy="24.15" r="0.65"/>
				</g>
				<circle class="st7" cx="2.46" cy="29.44" r="0.65"/>
				<circle class="st9" cx="10.46" cy="38.48" r="0.65"/>
				<g>
					<line class="st7" x1="15.36" y1="41.57" x2="12.26" y2="41.57"/>
					<circle class="st7" cx="11.61" cy="41.57" r="0.65"/>
					<circle class="st7" cx="16.01" cy="41.57" r="0.65"/>
				</g>
				<g>
					<line class="st7" x1="27.35" y1="28.88" x2="24.25" y2="28.88"/>
					<circle class="st7" cx="23.6" cy="28.88" r="0.65"/>
					<circle class="st7" cx="28" cy="28.88" r="0.65"/>
				</g>
				<circle class="st7" cx="14.76" cy="44.65" r="0.65"/>
				<circle class="st7" cx="22.16" cy="44.65" r="0.65"/>
				<circle class="st9" cx="17.59" cy="32.57" r="0.65"/>
				<circle class="st9" cx="25.55" cy="35.41" r="0.65"/>
				<circle class="st9" cx="31.59" cy="47.72" r="0.65"/>
				<circle class="st9" cx="37.74" cy="44.23" r="0.65"/>
				<circle class="st9" cx="35.63" cy="42.04" r="0.65"/>
				<line class="st8" x1="21.01" y1="22.7" x2="19.79" y2="21.49"/>
				<circle class="st9" cx="21.52" cy="23.21" r="0.65"/>
				<circle class="st9" cx="19.41" cy="21.02" r="0.65"/>
			</g>
		</g>
	</g>
</g>
</svg>
