<?xml version="1.0" encoding="utf-8"?>
<!-- Generator: Adobe Illustrator 26.2.1, SVG Export Plug-In . SVG Version: 6.00 Build 0)  -->
<svg version="1.1" id="Layer_2" xmlns="http://www.w3.org/2000/svg" xmlns:xlink="http://www.w3.org/1999/xlink" x="0px" y="0px"
	 viewBox="0 0 1489.76 641.32" style="enable-background:new 0 0 1489.76 641.32;" xml:space="preserve">
<style type="text/css">
	.st0{fill:#A6D1FF;}
	.st1{fill:#6BB7FC;}
	.st2{fill:#FFFFFF;}
	.st3{fill:#1C75BC;}
	.st4{fill:#2E3192;}
	.st5{fill:#27AAE1;}
	.st6{fill:#2B3990;}
	.st7{fill:#2E282E;}
	.st8{fill:#CF4338;}
	.st9{fill:#962424;}
	.st10{fill:#FDFDFD;}
	.st11{fill:#4F3B46;}
	.st12{fill:#F2C5A6;}
	.st13{fill:#BD9077;}
	.st14{fill:#FBEFE1;}
	.st15{fill:#731C1C;}
	.st16{fill:#39387B;}
	.st17{fill:#4D4A99;}
	.st18{fill:#E9A421;}
	.st19{fill:#D97B24;}
	.st20{opacity:0.2;fill:#FBEFE1;}
	.st21{fill:#6D74B7;}
	.st22{fill:#9087F4;}
	.st23{fill:#BCB6F9;}
	.st24{fill:#766EDB;}
	.st25{opacity:0.3;fill:#CDC8FA;}
	.st26{fill:#4D5494;}
	.st27{fill:#D7635A;}
	.st28{fill:#6D5C65;}
	.st29{fill:#CDC8FA;}
	.st30{opacity:0.53;}
</style>
<g>
	<path class="st0" d="M1430.22,585.29H835.24V113.13h407.98c103.27,0,186.99,83.72,186.99,186.99V585.29z"/>
	<path class="st0" d="M1110.9,223.29H782.09V45.96h248.81c44.18,0,80,35.82,80,80V223.29z"/>
	<g>
		<path class="st1" d="M1474.35,387.35c-8.9-13.36-11.14-30.06-7.07-45.59c1.54-5.85,2.36-11.99,2.36-18.32
			c0.01-16.85-5.77-32.35-15.46-44.62c-10.29-13.04-14.92-29.63-11.84-45.94c0.63-3.33,0.89-6.8,0.75-10.35
			c-0.96-23.27-20.07-42.48-43.33-43.54c-26.1-1.19-47.63,19.6-47.65,45.44c0,2.57,0.21,5.09,0.62,7.55
			c2.77,16.52-1.35,33.66-11.73,46.8c-9.7,12.26-15.49,27.76-15.5,44.61c0,6.34,0.81,12.48,2.34,18.34
			c4.12,15.73,1.48,32.5-7.46,46.08c-10.55,16.03-16.23,35.55-14.94,56.46c2.83,45.75,39.75,82.99,85.48,86.17
			c53.91,3.74,98.81-38.86,98.84-91.97C1489.77,419.55,1484.1,401.98,1474.35,387.35z"/>
		<g>
			<rect x="1394.19" y="252.87" class="st2" width="6.67" height="331.78"/>
		</g>
		<g>
			
				<rect x="1390.6" y="293.21" transform="matrix(0.7075 -0.7067 0.7067 0.7075 204.1554 1086.349)" class="st2" width="47.73" height="6.67"/>
		</g>
		<g>
			
				<rect x="1372.9" y="323.9" transform="matrix(0.7075 -0.7068 0.7068 0.7075 152.3724 1076.2296)" class="st2" width="6.67" height="60.31"/>
		</g>
		<g>
			
				<rect x="1387.88" y="424.83" transform="matrix(0.7075 -0.7067 0.7067 0.7075 112.9868 1129.3247)" class="st2" width="65.83" height="6.67"/>
		</g>
	</g>
	<path class="st0" d="M517.3,65.81h-167c-145.57,0-263.57,118.01-263.57,263.57v255.91H517.3V65.81z"/>
	<g>
		<path class="st3" d="M157.3,401.1c-8.28-12.43-10.37-27.97-6.57-42.41c1.43-5.44,2.19-11.15,2.19-17.04
			c0.01-15.68-5.37-30.1-14.38-41.51c-9.57-12.13-13.88-27.56-11.02-42.74c0.59-3.1,0.83-6.33,0.69-9.63
			c-0.89-21.65-18.67-39.52-40.31-40.51c-24.28-1.11-44.32,18.24-44.33,42.27c0,2.39,0.2,4.74,0.58,7.02
			c2.57,15.37-1.25,31.32-10.91,43.54c-9.02,11.41-14.41,25.82-14.42,41.5c0,5.89,0.75,11.61,2.18,17.06
			c3.83,14.64,1.38,30.23-6.94,42.87c-9.81,14.91-15.1,33.07-13.9,52.52c2.63,42.56,36.98,77.21,79.52,80.16
			c50.15,3.48,91.93-36.16,91.95-85.57C171.65,431.05,166.37,414.7,157.3,401.1z"/>
		<g>
			<rect x="82.5" y="275.98" class="st2" width="6.67" height="308.66"/>
		</g>
		<g>
			
				<rect x="79.38" y="313.27" transform="matrix(0.7074 -0.7068 0.7068 0.7074 -194.0591 164.4419)" class="st2" width="44.4" height="6.67"/>
		</g>
		<g>
			
				<rect x="62.69" y="342.06" transform="matrix(0.7075 -0.7068 0.7068 0.7075 -242.2655 154.9358)" class="st2" width="6.67" height="56.11"/>
		</g>
		<g>
			
				<rect x="76.86" y="435.73" transform="matrix(0.7074 -0.7068 0.7068 0.7074 -278.8912 204.442)" class="st2" width="61.24" height="6.67"/>
		</g>
	</g>
	<g>
		<path class="st1" d="M307.71,365.31c-9.89-14.85-12.39-33.42-7.86-50.68c1.71-6.5,2.62-13.33,2.62-20.37
			c0.01-18.73-6.41-35.96-17.18-49.61c-11.44-14.49-16.59-32.94-13.16-51.08c0.7-3.71,0.99-7.56,0.83-11.51
			c-1.07-25.87-22.31-47.23-48.18-48.41c-29.01-1.33-52.96,21.79-52.97,50.52c0,2.86,0.24,5.66,0.69,8.39
			c3.08,18.36-1.5,37.42-13.04,52.03c-10.78,13.64-17.22,30.86-17.23,49.59c0,7.04,0.9,13.88,2.61,20.39
			c4.58,17.49,1.65,36.13-8.29,51.23c-11.73,17.82-18.05,39.52-16.61,62.77c3.14,50.87,44.19,92.27,95.03,95.8
			c59.93,4.16,109.86-43.21,109.88-102.25C324.85,401.1,318.54,381.57,307.71,365.31z"/>
		<g>
			<rect x="218.96" y="215.79" class="st2" width="6.67" height="368.86"/>
		</g>
		<g>
			
				<rect x="214.59" y="261.01" transform="matrix(0.7074 -0.7068 0.7068 0.7074 -116.2895 247.7714)" class="st2" width="53.06" height="6.67"/>
		</g>
		<g>
			
				<rect x="195.29" y="294.76" transform="matrix(0.7075 -0.7068 0.7068 0.7075 -173.9128 236.4195)" class="st2" width="6.67" height="67.05"/>
		</g>
		<g>
			
				<rect x="211.57" y="409.48" transform="matrix(0.7077 -0.7065 0.7065 0.7077 -217.6189 295.3932)" class="st2" width="73.18" height="2.4"/>
		</g>
	</g>
	<path class="st0" d="M724.72,0H513.1c-66.78,0-120.91,54.13-120.91,120.91v464.38h453.44V120.91C845.63,54.13,791.5,0,724.72,0z"/>
	<path class="st4" d="M1445.98,641.32H82.76c-11.92,0-21.59-9.67-21.59-21.59l0,0c0-11.92,9.67-21.59,21.59-21.59h1363.22
		c11.92,0,21.59,9.67,21.59,21.59l0,0C1467.57,631.65,1457.91,641.32,1445.98,641.32z"/>
	<path class="st5" d="M1445.98,628.47H82.76c-11.92,0-21.59-9.67-21.59-21.59v0c0-11.92,9.67-21.59,21.59-21.59h1363.22
		c11.92,0,21.59,9.67,21.59,21.59v0C1467.57,618.81,1457.91,628.47,1445.98,628.47z"/>
	<g>
		<path class="st1" d="M966.82,99.66v-1.83c0-5.56,4.53-10.06,10.12-10.06h14.75c6.1,0,11.04-4.92,11.04-10.98v0
			c0-6.06-4.94-10.98-11.04-10.98h-73.92c-6.61,0-11.96,5.33-11.96,11.89l0,0c0,6.57,5.36,11.89,11.96,11.89h20.68
			c5.59,0,10.12,4.51,10.12,10.06l0,0c0,5.56-4.53,10.06-10.12,10.06h-52.03c-6.29,0-11.39,5.07-11.39,11.32l0,0
			c0,6.25,5.1,11.32,11.39,11.32h134.43c6.29,0,11.39-5.07,11.39-11.32l0,0c0-6.25-5.1-11.32-11.39-11.32h-43.89
			C971.35,109.72,966.82,105.22,966.82,99.66z"/>
		<path class="st1" d="M843.12,109.72h8.24c6.25,0,11.32,5.07,11.32,11.32l0,0c0,6.25-5.07,11.32-11.32,11.32h-8.24
			c-6.25,0-11.32-5.07-11.32-11.32l0,0C831.79,114.79,836.86,109.72,843.12,109.72z"/>
	</g>
	<path class="st6" d="M1356.99,599.91H157.76c-4.22,0-7.64-3.42-7.64-7.64l0,0c0-4.22,3.42-7.64,7.64-7.64h1199.23
		c4.22,0,7.64,3.42,7.64,7.64l0,0C1364.63,596.5,1361.21,599.91,1356.99,599.91z"/>
	<g>
		<path class="st1" d="M1241.2,56.64h-44.91c-5.9,0-10.68-4.78-10.68-10.68v0c0-5.9,4.78-10.68,10.68-10.68h44.91
			c5.9,0,10.68,4.78,10.68,10.68v0C1251.87,51.86,1247.09,56.64,1241.2,56.64z"/>
		<path class="st1" d="M350.7,122.66h-44.91c-5.9,0-10.68-4.78-10.68-10.68v0c0-5.9,4.78-10.68,10.68-10.68h44.91
			c5.9,0,10.68,4.78,10.68,10.68v0C361.37,117.88,356.59,122.66,350.7,122.66z"/>
		<path class="st1" d="M1162.09,56.64h-9.14c-5.9,0-10.68-4.78-10.68-10.68v0c0-5.9,4.78-10.68,10.68-10.68h9.14
			c5.9,0,10.68,4.78,10.68,10.68v0C1172.77,51.86,1167.99,56.64,1162.09,56.64z"/>
	</g>
	<g>
		<rect x="1029.39" y="460.7" class="st7" width="261.73" height="8.51"/>
		<rect x="614.98" y="460.7" class="st7" width="375.74" height="8.51"/>
		<rect x="746.67" y="184.62" class="st8" width="571.33" height="277.15"/>
		<g>
			<rect x="769.26" y="179.51" class="st9" width="11.16" height="282.25"/>
			<rect x="799.3" y="179.51" class="st9" width="11.16" height="282.25"/>
			<rect x="829.34" y="179.51" class="st9" width="11.16" height="282.25"/>
			<rect x="859.39" y="179.51" class="st9" width="11.16" height="282.25"/>
			<rect x="889.43" y="179.51" class="st9" width="11.16" height="282.25"/>
			<rect x="919.47" y="179.51" class="st9" width="11.16" height="282.25"/>
			<rect x="949.51" y="179.51" class="st9" width="11.16" height="282.25"/>
			<rect x="979.55" y="179.51" class="st9" width="11.16" height="282.25"/>
			<rect x="1009.59" y="179.51" class="st9" width="11.16" height="282.25"/>
			<rect x="1039.63" y="179.51" class="st9" width="11.16" height="282.25"/>
			<rect x="1069.67" y="179.51" class="st9" width="11.16" height="282.25"/>
			<rect x="1099.72" y="179.51" class="st9" width="11.16" height="282.25"/>
			<rect x="1129.76" y="179.51" class="st9" width="11.16" height="282.25"/>
			<rect x="1159.8" y="179.51" class="st9" width="11.16" height="282.25"/>
			<rect x="1189.84" y="179.51" class="st9" width="11.16" height="282.25"/>
			<rect x="1219.88" y="179.51" class="st9" width="11.16" height="282.25"/>
			<rect x="1249.92" y="179.51" class="st9" width="11.16" height="282.25"/>
			<rect x="1279.96" y="179.51" class="st9" width="11.16" height="282.25"/>
			<rect x="1310" y="179.51" class="st9" width="11.16" height="282.25"/>
		</g>
		
			<rect x="896.51" y="-239.56" transform="matrix(-1.836970e-16 1 -1 -1.836970e-16 1081.6052 -722.5843)" class="st9" width="11.16" height="838.15"/>
		<path class="st2" d="M396.75,203.79h58.46c1.85,0,3.35-1.5,3.35-3.35v-81.37c0-14.93,12.1-27.03,27.03-27.03h24.78
			c2.09,0,3.79-1.7,3.79-3.79V20.53h40.08v79.46c0,14.13-11.45,25.58-25.58,25.58h-47.82c-3.64,0-6.59,2.95-6.59,6.59v62.82
			c0,9.46-7.67,17.12-17.12,17.12h-63.17L396.75,203.79z"/>
		<g>
			<g>
				<g>
					<path class="st10" d="M375.69,275.67h-1.09v-2.53c0-0.62-0.51-1.13-1.13-1.13c-1.23,0-2.22-1-2.22-2.22v-0.62
						c0-0.62-0.51-1.13-1.13-1.13h-1.14c-1.23,0-2.22-1-2.22-2.22v-2.45h1.09v2.45c0,0.62,0.51,1.13,1.13,1.13h1.14
						c1.23,0,2.22,1,2.22,2.22v0.62c0,0.62,0.51,1.13,1.13,1.13c1.23,0,2.22,1,2.22,2.22V275.67z"/>
				</g>
				
					<rect x="357.84" y="262.37" transform="matrix(-1 -1.224647e-16 1.224647e-16 -1 718.8196 538.0335)" class="st9" width="3.15" height="13.3"/>
				<g>
					<path class="st8" d="M339.8,276.3l8.19-7.01c4.03-3.45,9.15-5.34,14.45-5.34h8.41c1.9,0,3.43-1.55,3.42-3.45l0,0l0.05,0.11
						v-0.03c0-1.89-1.53-3.42-3.42-3.42h-8.6c-5.22,0-10.28-1.84-14.28-5.2l-8.27-6.94L339.8,276.3z"/>
				</g>
				<path class="st9" d="M370.85,261.91h-8.41c-5.3,0-10.43,1.89-14.45,5.34l-8.19,7.01l-0.05-29.23l0,0l0.05,31.28l8.19-7.01
					c4.03-3.45,9.15-5.34,14.45-5.34h8.41c1.9,0,3.43-1.55,3.42-3.45l0.05,0.11v-0.03c0-0.39-0.07-0.77-0.19-1.12
					C373.71,260.87,372.4,261.91,370.85,261.91z"/>
				<path class="st2" d="M332.9,260.62c0,6.02,2.39,11.48,6.27,15.49c0.2,0.21,0.54,0.21,0.75,0c3.88-4.01,6.27-9.47,6.27-15.49
					c0-6.02-2.39-11.48-6.27-15.49c-0.2-0.21-0.54-0.21-0.75,0C335.29,249.14,332.9,254.6,332.9,260.62z"/>
				<path class="st9" d="M339.55,273.75c-3.1-3.68-4.79-8.29-4.79-13.13c0-4.84,1.69-9.45,4.79-13.13c3.1,3.68,4.79,8.29,4.79,13.13
					C344.34,265.46,342.65,270.07,339.55,273.75z"/>
				<path class="st2" d="M343.37,254.41c-3.02,0.46-5.33,3.06-5.33,6.21c0,3.15,2.31,5.75,5.33,6.21c0.63-1.98,0.96-4.08,0.96-6.21
					C344.34,258.48,344.01,256.39,343.37,254.41z"/>
			</g>
		</g>
		<g>
			<g>
				<path class="st11" d="M373.78,477.92h-8.18v-17.7h8.18c3.82,0,6.92-3.1,6.92-6.92V224.35c0-10.09,5.74-18.87,14.13-23.24
					c5.49-2.86,12.06,1.1,12.06,7.29v0.03c0,3.63-1.93,6.89-4.9,8.99c-2.18,1.54-3.6,4.08-3.6,6.94v228.96
					C398.39,466.9,387.37,477.92,373.78,477.92z"/>
			</g>
			<path class="st12" d="M390.81,349.41v98.65c0,22.85-9.77,23.35-24.61,23.35l-0.6,1.26v5.24h8.18c13.57,0,24.61-11.04,24.61-24.61
				V349.41H390.81z"/>
			<path class="st13" d="M396.5,349.41v102.8c0,13.03-10.57,23.6-23.6,23.6h-7.3v2.11h8.18c13.57,0,24.61-11.04,24.61-24.61V349.41
				H396.5z"/>
			<rect x="380.7" y="443.79" class="st13" width="17.7" height="4.42"/>
			<path class="st7" d="M390.32,228.75v163.22h8.07V224.35c0-0.33,0.02-0.65,0.06-0.97c0.01-0.1,0.03-0.2,0.05-0.3
				c0.03-0.22,0.07-0.43,0.12-0.65c0.03-0.11,0.06-0.22,0.09-0.33c0.06-0.2,0.12-0.4,0.19-0.6c0.04-0.1,0.07-0.21,0.11-0.31
				c0.09-0.22,0.19-0.43,0.29-0.64c0.03-0.07,0.06-0.14,0.1-0.2c0.15-0.27,0.3-0.53,0.48-0.79c0.04-0.06,0.09-0.12,0.13-0.18
				c0.14-0.19,0.28-0.37,0.43-0.55c0.07-0.08,0.14-0.16,0.22-0.24c0.14-0.15,0.28-0.29,0.43-0.43c0.08-0.08,0.16-0.15,0.24-0.22
				c0.16-0.14,0.33-0.27,0.5-0.4c0.06-0.04,0.11-0.09,0.17-0.13c2.97-2.1,4.9-5.35,4.9-8.99v-0.03c0-0.61-0.08-1.19-0.2-1.75
				C395.81,209.64,390.32,217.78,390.32,228.75z"/>
			<rect x="372.24" y="316.13" class="st12" width="30.38" height="122.34"/>
			<polygon class="st13" points="372.24,316.13 372.24,329.82 396.3,329.82 396.3,438.47 402.61,438.47 402.61,316.13 			"/>
			<g>
				<g>
					<rect x="372.24" y="361" class="st13" width="30.38" height="2.53"/>
				</g>
				<g>
					<rect x="372.24" y="369.22" class="st13" width="30.38" height="2.53"/>
				</g>
				<g>
					<rect x="372.24" y="377.43" class="st13" width="30.38" height="2.53"/>
				</g>
				<g>
					<rect x="372.24" y="385.65" class="st13" width="30.38" height="2.53"/>
				</g>
				<g>
					<rect x="372.24" y="393.87" class="st13" width="30.38" height="2.53"/>
				</g>
				<g>
					<rect x="372.24" y="402.08" class="st13" width="30.38" height="2.53"/>
				</g>
				<g>
					<rect x="372.24" y="410.3" class="st13" width="30.38" height="2.53"/>
				</g>
				<g>
					<rect x="372.24" y="418.51" class="st13" width="30.38" height="2.53"/>
				</g>
			</g>
			<path class="st14" d="M401.62,328.14h-28.86c-2.09,0-3.79-1.7-3.79-3.79v-4.42c0-2.09,1.7-3.79,3.79-3.79h28.86
				c2.09,0,3.79,1.7,3.79,3.79v4.42C405.42,326.44,403.72,328.14,401.62,328.14z"/>
			<path class="st13" d="M401.62,316.13h-6.81c2.09,0,3.79,1.7,3.79,3.79v4.42c0,2.09-1.7,3.79-3.79,3.79h6.81
				c2.09,0,3.79-1.7,3.79-3.79v-4.42C405.42,317.83,403.72,316.13,401.62,316.13z"/>
			<path class="st12" d="M396.5,328.14h-9.27c-2.09,0-3.79-1.7-3.79-3.79v-4.42c0-2.09,1.7-3.79,3.79-3.79h9.27
				c2.09,0,3.79,1.7,3.79,3.79v4.42C400.29,326.44,398.59,328.14,396.5,328.14z"/>
			<path class="st14" d="M401.62,444.48h-28.86c-2.09,0-3.79-1.7-3.79-3.79v-4.42c0-2.09,1.7-3.79,3.79-3.79h28.86
				c2.09,0,3.79,1.7,3.79,3.79v4.42C405.42,442.78,403.72,444.48,401.62,444.48z"/>
			<g>
				<circle class="st13" cx="378.52" cy="333.84" r="2.53"/>
				<path class="st13" d="M384.67,333.83c0,1.4,1.13,2.53,2.53,2.53c1.4,0,2.53-1.13,2.53-2.53s-1.13-2.53-2.53-2.53
					C385.8,331.31,384.67,332.44,384.67,333.83z"/>
				<circle class="st13" cx="395.87" cy="333.84" r="2.53"/>
			</g>
			<g>
				<circle class="st13" cx="378.52" cy="343.32" r="2.53"/>
				<circle class="st13" cx="387.19" cy="343.32" r="2.53"/>
				<circle class="st13" cx="395.87" cy="343.32" r="2.53"/>
			</g>
			<g>
				<circle class="st13" cx="378.52" cy="352.8" r="2.53"/>
				<circle class="st13" cx="387.19" cy="352.8" r="2.53"/>
				<circle class="st13" cx="395.87" cy="352.8" r="2.53"/>
			</g>
			<path class="st13" d="M401.62,432.47h-6.81c2.09,0,3.79,1.7,3.79,3.79v4.42c0,2.09-1.7,3.79-3.79,3.79h6.81
				c2.09,0,3.79-1.7,3.79-3.79v-4.42C405.42,434.17,403.72,432.47,401.62,432.47z"/>
			<path class="st12" d="M396.5,444.48h-9.27c-2.09,0-3.79-1.7-3.79-3.79v-4.42c0-2.09,1.7-3.79,3.79-3.79h9.27
				c2.09,0,3.79,1.7,3.79,3.79v4.42C400.29,442.78,398.59,444.48,396.5,444.48z"/>
		</g>
		<rect x="1288.69" y="476.66" class="st13" width="33.53" height="53.92"/>
		<rect x="1284.48" y="476.66" class="st11" width="33.53" height="53.92"/>
		<path class="st13" d="M268.45,376.17h-7.89v15.48h18.32v-5.05C278.88,380.84,274.21,376.17,268.45,376.17z"/>
		<g>
			<path class="st11" d="M228.85,480.01L228.85,480.01c-33.13,0-59.98,26.85-59.98,59.98v12.96c0,32.99,26.75,59.74,59.74,59.74
				h28.05l32.17-72.69C288.83,506.87,261.97,480.01,228.85,480.01z"/>
			<path class="st7" d="M264.72,491.92c-10.01-7.48-22.42-11.91-35.88-11.91h0c-33.13,0-59.98,26.85-59.98,59.98v12.96
				c0,11.02,3,21.34,8.21,30.21h87.65V491.92z"/>
			<path class="st7" d="M251.6,480.01L251.6,480.01c-30.33,0-54.92,24.59-54.92,54.92v22.83c0,30.33,24.59,54.92,54.92,54.92h0
				c30.33,0,54.92-24.59,54.92-54.92v-22.83C306.52,504.6,281.93,480.01,251.6,480.01z"/>
		</g>
		<g>
			<path class="st7" d="M642.14,473.69c0,0-7.78,0-22.75,0c-36.56,0-66.3,29.74-66.3,66.31v9.12v3.84c0,2.41,0.13,4.79,0.39,7.13
				h6.36c3.53,29.63,28.72,52.6,59.3,52.6h22.99h0h5.06l0.11-0.25c27.15-2.53,48.55-24.82,49.7-52.35h6.33
				c0.04-0.77,0.05-1.54,0.05-2.33v-22.82C703.38,501.17,675.9,473.69,642.14,473.69z"/>
		</g>
		<rect x="483.02" y="184.62" class="st9" width="263.91" height="277.15"/>
		
			<rect x="896.51" y="36.6" transform="matrix(-1.836970e-16 1 -1 -1.836970e-16 1357.7682 -446.4214)" class="st9" width="11.16" height="838.15"/>
		<path class="st7" d="M693.27,561.35H163.6v-47.03h539.78v36.92C703.38,556.82,698.85,561.35,693.27,561.35z"/>
		<path class="st7" d="M1091.34,473.69c0,0-101.19,0-116.17,0c0,0-7.78,0-22.75,0c-36.56,0-66.3,29.74-66.3,66.31v9.12v3.84
			c0,2.41,0.13,4.79,0.39,7.13h6.36c3.53,29.63,28.72,52.6,59.3,52.6h22.99l0,0h5.06l0.11-0.25c16.69-1.56,31.2-10.58,40.18-23.69
			c10.9,14.53,28.26,23.94,47.83,23.94h22.99l0,0h5.06l0.11-0.25c27.15-2.53,48.55-24.82,49.7-52.35h6.33
			c0.04-0.77,0.05-1.54,0.05-2.33v-22.82C1152.58,501.17,1125.1,473.69,1091.34,473.69z"/>
		<rect x="631.13" y="469.21" class="st15" width="145.77" height="17.79"/>
		<rect x="732.66" y="469.21" class="st16" width="570.07" height="18.71"/>
		<rect x="732.66" y="469.21" class="st17" width="570.07" height="6.94"/>
		<rect x="500.93" y="551.66" class="st7" width="28.65" height="28.84"/>
		<rect x="299.72" y="551.66" class="st7" width="28.65" height="28.84"/>
		<path class="st7" d="M1265.13,534.04H671.47V487h621.86v18.83C1293.33,521.41,1280.7,534.04,1265.13,534.04z"/>
		<g>
			<g>
				<path class="st11" d="M938.41,545.97L938.41,545.97c-2.09,0-3.79-1.7-3.79-3.79v-48.23h7.58v48.23
					C942.2,544.27,940.51,545.97,938.41,545.97z"/>
				<path class="st11" d="M985.6,545.97L985.6,545.97c-2.09,0-3.79-1.7-3.79-3.79v-48.23h7.58v48.23
					C989.39,544.27,987.7,545.97,985.6,545.97z"/>
			</g>
			
				<rect x="1004.13" y="482.09" transform="matrix(0.7071 0.7071 -0.7071 0.7071 658.2478 -562.3305)" class="st11" width="7.58" height="62.66"/>
			
				<rect x="911.24" y="482.72" transform="matrix(-0.7071 0.7071 -0.7071 -0.7071 1925.542 230.513)" class="st11" width="7.58" height="62.66"/>
			
				<rect x="958.4" y="478.87" transform="matrix(-0.7071 0.7071 -0.7071 -0.7071 2003.3359 190.5989)" class="st11" width="7.58" height="62.66"/>
			
				<rect x="958.4" y="478.87" transform="matrix(-0.7071 -0.7071 0.7071 -0.7071 1281.7986 1551.3462)" class="st11" width="7.58" height="62.66"/>
		</g>
		<path class="st13" d="M732.66,487v6.94h573.56c1.92,0,3.47-1.55,3.47-3.47v0c0-1.92-1.55-3.47-3.47-3.47H732.66z"/>
		<path class="st17" d="M274.87,473.69h-95.7c-6.06,0-11.92,0.83-17.5,2.36c-0.95,0.26-1.6,1.14-1.6,2.12v37.67h81.88v37.5h62.09
			c0.01-0.01,0.01-0.01,0.02-0.02v-13.32C304.06,524.68,288.39,484.93,274.87,473.69z"/>
		<g>
			<path class="st14" d="M202.14,515.84h-52.26v-27.18c0-6.63,5.38-12.01,12.01-12.01h28.24c6.63,0,12.01,5.38,12.01,12.01V515.84z"
				/>
			<path class="st18" d="M156.21,509.52v-20.86c0-3.14,2.55-5.69,5.69-5.69h28.24c3.14,0,5.69,2.55,5.69,5.69v20.86H156.21z"/>
			<path class="st18" d="M195.82,488.67v20.86h-39.61v-20.86c0-3.13,2.55-5.69,5.69-5.69h28.24
				C193.27,482.98,195.82,485.53,195.82,488.67z"/>
			<path class="st19" d="M170.38,502.68h-7.27c-2.18,0-3.95-1.77-3.95-3.95v-8.53c0-2.18,1.77-3.95,3.95-3.95h7.27
				c2.18,0,3.95,1.77,3.95,3.95v8.53C174.33,500.91,172.56,502.68,170.38,502.68z"/>
			<polygon class="st20" points="175.04,482.98 156.21,501.83 156.21,497.1 170.31,482.98 			"/>
			<path class="st19" d="M188.71,502.68h-7.27c-2.18,0-3.95-1.77-3.95-3.95v-8.53c0-2.18,1.77-3.95,3.95-3.95h7.27
				c2.18,0,3.95,1.77,3.95,3.95v8.53C192.66,500.91,190.89,502.68,188.71,502.68z"/>
			<polygon class="st20" points="188.91,482.98 162.36,509.52 156.21,509.52 156.21,507.2 180.41,482.98 			"/>
		</g>
		<g>
			<path class="st21" d="M636.6,223.86H452.05c-28.62,0-51.83,23.2-51.83,51.83v0H636.6V223.86z"/>
			<path class="st17" d="M476.01,223.86c-7.84,7.41-12.74,17.89-12.74,29.53v0c0,12.32,9.98,22.3,22.3,22.3H636.6v-51.83H476.01z"/>
			<path class="st22" d="M457.11,223.86h-5.06c-28.62,0-51.83,23.2-51.83,51.83v0h5.06v0C405.28,247.06,428.49,223.86,457.11,223.86
				z"/>
			<path class="st16" d="M684,223.86H562.02c-28.62,0-51.83,23.2-51.83,51.83v0h186.44V236.5
				C696.64,229.51,690.98,223.86,684,223.86z"/>
			<path class="st12" d="M487.79,262.09h-70.15c-3.32,0-6,2.69-6,6v7.58h82.16v-7.58C493.79,264.78,491.11,262.09,487.79,262.09z"/>
			<path class="st7" d="M444.59,264.94h-26.22c-2.09,0-3.79,1.7-3.79,3.79v8.22h33.8v-8.22
				C448.38,266.63,446.69,264.94,444.59,264.94z"/>
			<path class="st7" d="M486.14,264.94h-26.22c-2.09,0-3.79,1.7-3.79,3.79v8.22h33.8v-8.22
				C489.93,266.63,488.24,264.94,486.14,264.94z"/>
		</g>
		<path class="st17" d="M205.72,504.15H151.6c-7.03,0-12.73,5.7-12.73,12.73v0h66.86V504.15z"/>
		<path class="st17" d="M507.6,275.68H331.27c-14.31,0-25.91,11.6-25.91,25.91v14.54H507.6V275.68z"/>
		<path class="st22" d="M336.63,275.68h-5.36c-14.31,0-25.91,11.6-25.91,25.91v14.54h5.36v-14.54
			C310.72,287.28,322.32,275.68,336.63,275.68z"/>
		<g>
			<g>
				<g>
					<path class="st16" d="M380.71,299.7H369.5c-2.18,0-3.95-1.77-3.95-3.95v-8.53c0-2.18,1.77-3.95,3.95-3.95h3
						c4.54,0,8.21,3.68,8.21,8.21V299.7z"/>
					<path class="st18" d="M372.18,299.7h-7.27c-2.18,0-3.95-1.77-3.95-3.95v-8.53c0-2.18,1.77-3.95,3.95-3.95h7.27
						c2.18,0,3.95,1.77,3.95,3.95v8.53C376.13,297.93,374.36,299.7,372.18,299.7z"/>
					<path class="st18" d="M372.18,299.7h-7.27c-2.18,0-3.95-1.77-3.95-3.95v-8.53c0-2.18,1.77-3.95,3.95-3.95h7.27
						c2.18,0,3.95,1.77,3.95,3.95v8.53C376.13,297.93,374.36,299.7,372.18,299.7z"/>
					<path class="st14" d="M364.44,295.75v-8.53c0-2.18,1.77-3.95,3.95-3.95h-3.48c-2.18,0-3.95,1.77-3.95,3.95v8.53
						c0,2.18,1.77,3.95,3.95,3.95h3.48C366.21,299.7,364.44,297.93,364.44,295.75z"/>
				</g>
			</g>
			<g>
				<g>
					<path class="st16" d="M407.58,299.7h-11.22c-2.18,0-3.95-1.77-3.95-3.95v-8.53c0-2.18,1.77-3.95,3.95-3.95h3
						c4.54,0,8.21,3.68,8.21,8.21V299.7z"/>
					<path class="st18" d="M399.04,299.7h-7.27c-2.18,0-3.95-1.77-3.95-3.95v-8.53c0-2.18,1.77-3.95,3.95-3.95h7.27
						c2.18,0,3.95,1.77,3.95,3.95v8.53C402.99,297.93,401.22,299.7,399.04,299.7z"/>
					<path class="st18" d="M399.04,299.7h-7.27c-2.18,0-3.95-1.77-3.95-3.95v-8.53c0-2.18,1.77-3.95,3.95-3.95h7.27
						c2.18,0,3.95,1.77,3.95,3.95v8.53C402.99,297.93,401.22,299.7,399.04,299.7z"/>
					<path class="st14" d="M391.3,295.75v-8.53c0-2.18,1.77-3.95,3.95-3.95h-3.48c-2.18,0-3.95,1.77-3.95,3.95v8.53
						c0,2.18,1.77,3.95,3.95,3.95h3.48C393.07,299.7,391.3,297.93,391.3,295.75z"/>
				</g>
			</g>
			<g>
				<g>
					<path class="st16" d="M434.44,299.7h-11.22c-2.18,0-3.95-1.77-3.95-3.95v-8.53c0-2.18,1.77-3.95,3.95-3.95h3
						c4.54,0,8.21,3.68,8.21,8.21V299.7z"/>
					<path class="st18" d="M425.9,299.7h-7.27c-2.18,0-3.95-1.77-3.95-3.95v-8.53c0-2.18,1.77-3.95,3.95-3.95h7.27
						c2.18,0,3.95,1.77,3.95,3.95v8.53C429.85,297.93,428.08,299.7,425.9,299.7z"/>
					<path class="st18" d="M425.9,299.7h-7.27c-2.18,0-3.95-1.77-3.95-3.95v-8.53c0-2.18,1.77-3.95,3.95-3.95h7.27
						c2.18,0,3.95,1.77,3.95,3.95v8.53C429.85,297.93,428.08,299.7,425.9,299.7z"/>
					<path class="st14" d="M418.16,295.75v-8.53c0-2.18,1.77-3.95,3.95-3.95h-3.48c-2.18,0-3.95,1.77-3.95,3.95v8.53
						c0,2.18,1.77,3.95,3.95,3.95h3.48C419.93,299.7,418.16,297.93,418.16,295.75z"/>
				</g>
			</g>
		</g>
		<path class="st16" d="M640.39,275.21H508.3c-14.31,0-25.91,11.6-25.91,25.91v14.54h158V275.21z"/>
		<rect x="293.86" y="385.33" class="st16" width="188.53" height="130.51"/>
		<rect x="459.46" y="377.43" class="st16" width="13.59" height="10.11"/>
		<path class="st17" d="M482.39,316.13H305.36l-15.17,69.2h168.41c5.03,0,9.38-3.5,10.46-8.41L482.39,316.13z"/>
		<path class="st14" d="M299.16,373.94l10.57-48.21c0.42-1.91,2.12-3.28,4.08-3.28h155.54c2.66,0,4.65,2.46,4.08,5.07l-10.57,48.21
			c-0.42,1.91-2.12,3.28-4.08,3.28H303.23C300.57,379.01,298.59,376.55,299.16,373.94z"/>
		<path class="st17" d="M306.58,369.6l8.51-38.84c0.26-1.17,1.29-2,2.48-2h145.95c1.62,0,2.83,1.5,2.48,3.08l-8.51,38.84
			c-0.26,1.17-1.29,2-2.48,2H309.06C307.44,372.69,306.23,371.19,306.58,369.6z"/>
		<path class="st22" d="M306.58,369.6l8.51-38.84c0.26-1.17,1.29-2,2.48-2h145.95c1.62,0,2.83,1.5,2.48,3.08l-8.51,38.84
			c-0.26,1.17-1.29,2-2.48,2H309.06C307.44,372.69,306.23,371.19,306.58,369.6z"/>
		<path class="st23" d="M371.76,367.11v-29.33c0-2.09-1.7-3.79-3.79-3.79h-44.14c-1.52,0-2.83,1.06-3.16,2.54l-6.7,30.59H371.76z"/>
		<path class="st24" d="M331.74,360.71c-1.18-0.24-2.38-0.36-3.56-0.36c-6.08,0-10.79,3.1-11.72,7.71
			c-0.32,1.58-0.14,3.15,0.41,4.63h6.64c-1.2-1.14-1.78-2.45-1.56-3.52c0.38-1.86,2.99-3.21,6.22-3.21c0.8,0,1.63,0.08,2.45,0.25
			c2.22,0.45,4.24,1.48,5.53,2.83c0.61,0.63,1.59,1.9,1.31,3.27c-0.03,0.13-0.09,0.26-0.14,0.39h5.73c0.28-2.61-0.73-5.33-2.86-7.54
			C338.1,362.96,335.09,361.39,331.74,360.71z"/>
		<path class="st24" d="M343.64,355.32c-1.19,0-2.23,0.83-2.48,2l-3.37,15.37h117.21c1.19,0,2.23-0.83,2.48-2l3.37-15.37H343.64z"/>
		<path class="st25" d="M384.69,329.87h80.9c-0.45-0.65-1.2-1.1-2.08-1.1H317.57c-1.19,0-2.23,0.83-2.48,2l-8.51,38.84
			c-0.01,0.05-0.01,0.09-0.01,0.14c0.2,1.62,1.56,2.95,3.31,2.95h21.59h0C336.95,347.69,359.1,329.87,384.69,329.87z"/>
		<path class="st25" d="M461.88,329.87h80.9c-0.45-0.65-1.2-1.1-2.08-1.1H394.76c-1.19,0-2.23,0.83-2.48,2l-8.51,38.84
			c-0.01,0.05-0.01,0.09-0.01,0.14c0.2,1.62,1.56,2.95,3.31,2.95h21.59l0,0C414.14,347.69,436.29,329.87,461.88,329.87z"/>
		<polygon class="st16" points="382.35,372.69 388.67,372.69 398.3,328.77 391.98,328.77 		"/>
		<path class="st16" d="M308.41,371.67l8.7-39.67c0.15-0.68,0.75-1.16,1.45-1.16h146.8c0.23,0,0.45,0.04,0.66,0.1
			c-0.18-1.2-1.2-2.16-2.5-2.16H317.57c-1.19,0-2.23,0.83-2.48,2l-8.51,38.84c-0.3,1.36,0.55,2.64,1.82,2.99
			C308.35,372.3,308.34,371.99,308.41,371.67z"/>
		<polygon class="st14" points="389.28,322.45 376.89,379.01 383.21,379.01 395.6,322.45 		"/>
		<polygon class="st16" points="467.22,515.84 626.49,515.84 626.49,316.13 482.39,316.13 467.22,385.33 		"/>
		<g>
			<path class="st17" d="M564.69,479.19h-72.44l-0.37-0.63c-4.27-7.39-12.23-11.98-20.77-11.98h-1.26l0.03-67.61l18.82-84.6
				c0.22-1.02,0.82-3.75,3.16-3.75c1.01,0,2,0.54,3.16,1.15c1.52,0.82,3.41,1.83,5.77,1.83h63.9V479.19z M493.69,476.66h68.46
				V316.13h-61.37c-2.99,0-5.29-1.23-6.96-2.13c-0.75-0.4-1.59-0.85-1.96-0.85c0,0.01-0.35,0.18-0.7,1.76l-18.79,84.47v64.7
				C481.09,464.49,489.11,469.22,493.69,476.66z"/>
		</g>
		<g>
			<path class="st12" d="M494.61,327.42l-14.08,64.23h70.78c3.49,0,6.32-2.83,6.32-6.32v-56.56c0-3.49-2.83-6.32-6.32-6.32h-50.53
				C497.82,322.45,495.25,324.52,494.61,327.42z"/>
			<path class="st24" d="M488.67,384.04l11.56-52.73c0.32-1.48,1.64-2.54,3.16-2.54h44.14c2.09,0,3.79,1.7,3.79,3.79v48.98
				c0,2.09-1.7,3.79-3.79,3.79h-57.81C489.03,385.33,488.53,384.7,488.67,384.04z"/>
			<path class="st23" d="M503.38,328.77c-1.52,0-2.83,1.06-3.16,2.54l-5.38,24.57h47.95c2.09,0,3.79-1.7,3.79-3.79v-23.31H503.38z"
				/>
			<path class="st7" d="M554.56,436.62L554.56,436.62c1.79,0,3.24-1.45,3.24-3.24v-10.36c0-1.79-1.45-3.24-3.24-3.24l0,0
				c-1.79,0-3.24,1.45-3.24,3.24v10.36C551.32,435.17,552.77,436.62,554.56,436.62z"/>
			<path class="st11" d="M551.32,423.02v10.36c0,1.79,1.45,3.24,3.24,3.24v-16.84C552.77,419.78,551.32,421.23,551.32,423.02z"/>
		</g>
		<path class="st12" d="M350.51,410.82L350.51,410.82c0,1.05,0.85,1.9,1.9,1.9h101.33v-3.79H352.41
			C351.36,408.93,350.51,409.78,350.51,410.82z"/>
		<g>
			<path class="st26" d="M350.51,428.94L350.51,428.94c0,1.05,0.85,1.9,1.9,1.9h62.78c1.05,0,1.9-0.85,1.9-1.9l0,0
				c0-1.05-0.85-1.9-1.9-1.9h-62.78C351.36,427.05,350.51,427.9,350.51,428.94z"/>
			<path class="st26" d="M350.51,438.21L350.51,438.21c0,1.05,0.85,1.9,1.9,1.9h62.78c1.05,0,1.9-0.85,1.9-1.9l0,0
				c0-1.05-0.85-1.9-1.9-1.9h-62.78C351.36,436.32,350.51,437.16,350.51,438.21z"/>
			<path class="st26" d="M350.51,447.48L350.51,447.48c0,1.05,0.85,1.9,1.9,1.9h62.78c1.05,0,1.9-0.85,1.9-1.9l0,0
				c0-1.05-0.85-1.9-1.9-1.9h-62.78C351.36,445.59,350.51,446.43,350.51,447.48z"/>
			<path class="st26" d="M350.51,456.75L350.51,456.75c0,1.05,0.85,1.9,1.9,1.9h62.78c1.05,0,1.9-0.85,1.9-1.9l0,0
				c0-1.05-0.85-1.9-1.9-1.9h-62.78C351.36,454.85,350.51,455.7,350.51,456.75z"/>
		</g>
		<path class="st12" d="M555.74,408.93h-71.91c-1.05,0-1.9,0.85-1.9,1.9c0,1.05,0.85,1.9,1.9,1.9h71.91c1.05,0,1.9-0.85,1.9-1.9
			C557.64,409.78,556.79,408.93,555.74,408.93z"/>
		<path class="st13" d="M447.11,314.64L447.11,314.64c0,1.05,0.85,1.9,1.9,1.9h192.95v-3.79H449.01
			C447.96,312.74,447.11,313.59,447.11,314.64z"/>
		<path class="st14" d="M497.56,299.7h-191.5c-4.54,0-8.22,3.68-8.22,8.22v8.22h199.71V299.7z"/>
		<path class="st12" d="M426.77,299.7c-4.54,0-8.22,3.68-8.22,8.22v8.22h79V299.7H426.77z"/>
		<path class="st12" d="M293.86,309.27L293.86,309.27c0,1.05,0.85,1.9,1.9,1.9h192.95v-3.79H295.76
			C294.71,307.37,293.86,308.22,293.86,309.27z"/>
		<path class="st13" d="M419.63,307.37c-1.05,0-1.9,0.85-1.9,1.9c0,1.05,0.85,1.9,1.9,1.9h69.08v-3.79H419.63z"/>
		<path class="st13" d="M484.92,299.7c-4.54,0-8.22,3.68-8.22,8.22v8.22h20.86V299.7H484.92z"/>
		<g>
			<path class="st17" d="M684.42,247.82h-91.01c-11.17,0-20.22,9.05-20.22,20.22v185.81c0,11.17,9.05,20.22,20.22,20.22h91.01
				c11.17,0-1.26-9.05-1.26-20.22V268.04C683.16,256.87,695.59,247.82,684.42,247.82z"/>
			<path class="st16" d="M683.16,247.82h-53.09c-11.17,0-20.22,9.05-20.22,20.22v185.81c0,11.17,9.05,20.22,20.22,20.22h53.09
				c11.17,0,20.22-9.05,20.22-20.22V268.04C703.38,256.87,694.33,247.82,683.16,247.82z"/>
			<g>
				<rect x="609.84" y="290.16" class="st17" width="93.54" height="1.26"/>
			</g>
			<g>
				<rect x="609.84" y="369.64" class="st17" width="93.54" height="1.26"/>
			</g>
			<g>
				<rect x="609.84" y="449.11" class="st17" width="93.54" height="1.26"/>
			</g>
			<path class="st17" d="M645.44,433.77h30.34c5.58,0,10.11-4.53,10.11-10.11V321.28c0-5.58-4.53-10.11-10.11-10.11h-30.34
				c-5.58,0-10.11,4.53-10.11,10.11v102.39C635.33,429.25,639.85,433.77,645.44,433.77z"/>
		</g>
		<path class="st11" d="M428.73,480.01L428.73,480.01c-33.13,0-59.98,26.85-59.98,59.98v12.96c0,32.99,26.75,59.74,59.74,59.74
			h28.05l32.17-72.69C488.71,506.87,461.86,480.01,428.73,480.01z"/>
		<path class="st7" d="M456.98,487.08c-8.42-4.51-18.04-7.07-28.25-7.07h0c-33.13,0-59.98,26.85-59.98,59.98v12.96
			c0,11.02,3,21.34,8.21,30.21h80.03V487.08z"/>
		<path class="st17" d="M460.68,473.69h-95.7c-28.04,0-52.05,17.5-61.73,42.15h124.51v37.5h62.09c0.01-0.21,0.02-0.42,0.02-0.64
			v-12.71C489.87,524.68,474.2,484.93,460.68,473.69z"/>
		<path class="st16" d="M354.7,515.84h77.97v2.97h45.27v34.53h16.82c0.01-0.21,0.02-0.42,0.02-0.64v-12.71
			c0-14.18-13.43-49.29-26.15-63.33h-53.47C388.27,476.66,365.08,492.77,354.7,515.84z"/>
		<path class="st13" d="M324.86,385.33H223.02c-10.99,0-19.91,8.91-19.91,19.91v110.61h139.67v-112.6
			C342.78,393.35,334.75,385.33,324.86,385.33z"/>
		<path class="st14" d="M311.49,385.33h-99.85c-10.99,0-19.91,8.91-19.91,19.91v110.61H331.4V405.24
			C331.4,394.24,322.49,385.33,311.49,385.33z"/>
		<path class="st12" d="M198.06,516.89V405.24c0-7.49,6.09-13.59,13.59-13.59h99.85c7.49,0,13.59,6.1,13.59,13.59v111.65H198.06z"/>
		<rect x="198.06" y="513.2" class="st11" width="127.02" height="3.68"/>
		<path class="st11" d="M201.85,405.9c0-6.58,5.33-11.91,11.91-11.91h101.53c1.81,0,3.53,0.36,5.11,1c-2.39-2.08-5.5-3.35-8.9-3.35
			h-99.85c-7.49,0-13.59,6.1-13.59,13.59v111.65h3.79V405.9z"/>
		<path class="st11" d="M272.19,405.06h-19.31c-2.05,0-3.71-1.66-3.71-3.71l0,0c0-2.05,1.66-3.71,3.71-3.71h19.31
			c2.05,0,3.71,1.66,3.71,3.71l0,0C275.9,403.4,274.24,405.06,272.19,405.06z"/>
		<path class="st14" d="M222.15,410.93h-10.11c-3.49,0-6.32,2.83-6.32,6.32v79.63c0,3.49,2.83,6.32,6.32,6.32h10.11
			c3.49,0,6.32-2.83,6.32-6.32v-79.63C228.47,413.76,225.64,410.93,222.15,410.93z"/>
		<path class="st7" d="M212.04,499.41c-1.39,0-2.53-1.13-2.53-2.53v-79.63c0-1.39,1.13-2.53,2.53-2.53h10.11
			c1.39,0,2.53,1.13,2.53,2.53v79.63c0,1.39-1.13,2.53-2.53,2.53H212.04z"/>
		<path class="st14" d="M252.49,410.93h-10.11c-3.49,0-6.32,2.83-6.32,6.32v79.63c0,3.49,2.83,6.32,6.32,6.32h10.11
			c3.49,0,6.32-2.83,6.32-6.32v-79.63C258.81,413.76,255.98,410.93,252.49,410.93z"/>
		<path class="st7" d="M242.38,499.41c-1.39,0-2.53-1.13-2.53-2.53v-79.63c0-1.39,1.13-2.53,2.53-2.53h10.11
			c1.39,0,2.53,1.13,2.53,2.53v79.63c0,1.39-1.13,2.53-2.53,2.53H242.38z"/>
		<path class="st14" d="M282.82,410.93h-10.11c-3.49,0-6.32,2.83-6.32,6.32v79.63c0,3.49,2.83,6.32,6.32,6.32h10.11
			c3.49,0,6.32-2.83,6.32-6.32v-79.63C289.14,413.76,286.32,410.93,282.82,410.93z"/>
		<path class="st7" d="M272.71,499.41c-1.39,0-2.53-1.13-2.53-2.53v-79.63c0-1.39,1.13-2.53,2.53-2.53h10.11
			c1.39,0,2.53,1.13,2.53,2.53v79.63c0,1.39-1.13,2.53-2.53,2.53H272.71z"/>
		<path class="st14" d="M313.16,410.93h-10.11c-3.49,0-6.32,2.83-6.32,6.32v79.63c0,3.49,2.83,6.32,6.32,6.32h10.11
			c3.49,0,6.32-2.83,6.32-6.32v-79.63C319.48,413.76,316.65,410.93,313.16,410.93z"/>
		<path class="st7" d="M303.05,499.41c-1.39,0-2.53-1.13-2.53-2.53v-79.63c0-1.39,1.13-2.53,2.53-2.53h10.11
			c1.39,0,2.53,1.13,2.53,2.53v79.63c0,1.39-1.13,2.53-2.53,2.53H303.05z"/>
		<g>
			<path class="st11" d="M504.3,333.24h-10.11c-3.49,0-6.32,2.83-6.32,6.32v33.29c0,3.49,2.83,6.32,6.32,6.32h10.11
				c3.49,0,6.32-2.83,6.32-6.32v-33.29C510.62,336.07,507.79,333.24,504.3,333.24z"/>
			<path class="st12" d="M500.93,333.24h-8.43c-3.49,0-6.32,2.83-6.32,6.32v33.29c0,3.49,2.83,6.32,6.32,6.32h8.43
				c3.49,0,6.32-2.83,6.32-6.32v-33.29C507.25,336.07,504.42,333.24,500.93,333.24z"/>
			<path class="st12" d="M500.93,333.24h-8.43c-3.49,0-6.32,2.83-6.32,6.32v33.29c0,3.49,2.83,6.32,6.32,6.32h8.43
				c3.49,0,6.32-2.83,6.32-6.32v-33.29C507.25,336.07,504.42,333.24,500.93,333.24z"/>
			<path class="st14" d="M489.34,372.85v-33.29c0-3.49,2.83-6.32,6.32-6.32h-3.16c-3.49,0-6.32,2.83-6.32,6.32v33.29
				c0,3.49,2.83,6.32,6.32,6.32h3.16C492.17,379.17,489.34,376.34,489.34,372.85z"/>
		</g>
		<g>
			<path class="st13" d="M504.3,383.8h-10.11c-3.49,0-6.32,2.83-6.32,6.32v8.85c0,3.49,2.83,6.32,6.32,6.32h10.11
				c3.49,0,6.32-2.83,6.32-6.32v-8.85C510.62,386.63,507.79,383.8,504.3,383.8z"/>
			<path class="st12" d="M500.93,383.8h-8.43c-3.49,0-6.32,2.83-6.32,6.32v8.85c0,3.49,2.83,6.32,6.32,6.32h8.43
				c3.49,0,6.32-2.83,6.32-6.32v-8.85C507.25,386.63,504.42,383.8,500.93,383.8z"/>
		</g>
		<g>
			<g>
				<rect x="422.36" y="431.5" class="st14" width="6.45" height="32.95"/>
				<rect x="427.95" y="431.5" class="st13" width="7.92" height="32.95"/>
				<g>
					<circle class="st13" cx="424.77" cy="435.14" r="2.22"/>
					<circle class="st18" cx="423.82" cy="435.14" r="2.22"/>
					<circle class="st13" cx="424.77" cy="441.56" r="2.22"/>
					<circle class="st18" cx="423.82" cy="441.56" r="2.22"/>
					<circle class="st13" cx="424.77" cy="447.97" r="2.22"/>
					<circle class="st18" cx="423.82" cy="447.97" r="2.22"/>
					<circle class="st13" cx="424.77" cy="454.39" r="2.22"/>
					<circle class="st18" cx="423.82" cy="454.39" r="2.22"/>
					<circle class="st13" cx="424.77" cy="460.81" r="2.22"/>
					<circle class="st18" cx="423.82" cy="460.81" r="2.22"/>
				</g>
			</g>
			<g>
				<path class="st7" d="M433,431.5h-5.38c-5.01,0-9.06-4.06-9.06-9.06l0,0c0-5.01,4.06-9.06,9.06-9.06H433
					c3.49,0,6.32,2.83,6.32,6.32v5.49C439.32,428.67,436.5,431.5,433,431.5z"/>
				<path class="st11" d="M433,413.37h-5.38c-3.92,0-7.25,2.49-8.51,5.97c1.66-2.05,4.2-3.36,7.04-3.36H433
					c3.49,0,6.32,2.83,6.32,6.32v-2.62C439.32,416.2,436.5,413.37,433,413.37z"/>
				<rect x="438.19" y="392.6" class="st13" width="19.53" height="65.73"/>
				<path class="st11" d="M438.19,392.6v6.12h14.56c1.23,0,2.24,1,2.24,2.24v57.37h2.74V392.6H438.19z"/>
				<path class="st12" d="M458.99,404.93h-22.05c-3.49,0-6.32,2.83-6.32,6.32v53.09c0,3.49,2.83,6.32,6.32,6.32h22.05
					c3.49,0,6.32-2.83,6.32-6.32v-53.09C465.31,407.76,462.48,404.93,458.99,404.93z"/>
				<path class="st14" d="M433.49,464.33v-53.09c0-3.49,2.83-6.32,6.32-6.32h-2.88c-3.49,0-6.32,2.83-6.32,6.32v53.09
					c0,3.49,2.83,6.32,6.32,6.32h2.88C436.32,470.65,433.49,467.83,433.49,464.33z"/>
				<path class="st13" d="M458.99,404.93h-7.57c3.49,0,6.32,2.83,6.32,6.32v53.09c0,3.49-2.83,6.32-6.32,6.32h7.57
					c3.49,0,6.32-2.83,6.32-6.32v-53.09C465.31,407.76,462.48,404.93,458.99,404.93z"/>
				<rect x="430.61" y="413.67" class="st14" width="34.7" height="7.58"/>
				<rect x="430.61" y="454.33" class="st14" width="34.7" height="7.58"/>
				<path class="st14" d="M464.68,397.34h-33.44l0,0c0-4.19,3.4-7.58,7.58-7.58h18.27C461.28,389.76,464.68,393.15,464.68,397.34
					L464.68,397.34z"/>
				<path class="st13" d="M457.09,389.76h-5.96c4.19,0,7.58,3.4,7.58,7.58h5.96C464.68,393.15,461.28,389.76,457.09,389.76z"/>
			</g>
		</g>
		<g>
			<path class="st18" d="M381.09,461.62L381.09,461.62c-2.87,0-5.2,2.33-5.2,5.2v6.87h10.4v-6.87
				C386.29,463.95,383.96,461.62,381.09,461.62z"/>
			<rect x="374.38" y="470.56" class="st14" width="13.43" height="3.04"/>
		</g>
		<g>
			<path class="st14" d="M387.81,515.84h-52.26v-27.18c0-6.63,5.38-12.01,12.01-12.01h28.24c6.63,0,12.01,5.38,12.01,12.01V515.84z"
				/>
			<path class="st18" d="M341.87,509.52v-20.86c0-3.14,2.55-5.69,5.69-5.69h28.24c3.14,0,5.69,2.55,5.69,5.69v20.86H341.87z"/>
			<path class="st19" d="M356.04,502.68h-7.27c-2.18,0-3.95-1.77-3.95-3.95v-8.53c0-2.18,1.77-3.95,3.95-3.95h7.27
				c2.18,0,3.95,1.77,3.95,3.95v8.53C359.99,500.91,358.22,502.68,356.04,502.68z"/>
			<path class="st19" d="M374.37,502.68h-7.27c-2.18,0-3.95-1.77-3.95-3.95v-8.53c0-2.18,1.77-3.95,3.95-3.95h7.27
				c2.18,0,3.95,1.77,3.95,3.95v8.53C378.32,500.91,376.55,502.68,374.37,502.68z"/>
			<polygon class="st20" points="362.54,482.98 341.88,503.65 341.88,493.51 352.41,482.98 			"/>
			<path class="st20" d="M381.49,488.67v0.95l-19.91,19.91h-14.3l-2.34-2.34l24.21-24.21h6.65
				C378.94,482.98,381.49,485.53,381.49,488.67z"/>
		</g>
		<path class="st17" d="M387.45,504.15h-54.12c-7.03,0-12.73,5.7-12.73,12.73v0h66.86V504.15z"/>
		<path class="st13" d="M443.19,473.69c-28.05,0-52.05,17.51-61.73,42.15H149.89v45.5h241.49c5.58,0,10.11-4.53,10.11-10.11
			l0.06-15.97c0.11-28.45,21.65-52.72,50-55.05c0.72-0.06,1.45-0.11,2.18-0.14v-6.38H443.19z"/>
		<path class="st12" d="M378.47,561.35H141.45c-3.49,0-3.14-2.83-3.14-6.32v-32.86c0-3.49-0.35-6.32,3.14-6.32h237.02
			c3.49,0,6.32,2.83,6.32,6.32v32.86C384.79,558.52,381.96,561.35,378.47,561.35z"/>
		<path class="st14" d="M155.5,555.03v-32.86c0-3.49-0.35-6.32,3.14-6.32h-10.03c-3.49,0-3.14,2.83-3.14,6.32v32.86
			c0,3.49-0.35,6.32,3.14,6.32h10.03C155.15,561.35,155.5,558.52,155.5,555.03z"/>
		<path class="st14" d="M307.5,555.03v-32.86c0-3.49-0.35-6.32,3.14-6.32h-10.03c-3.49,0-3.14,2.83-3.14,6.32v32.86
			c0,3.49-0.35,6.32,3.14,6.32h10.03C307.16,561.35,307.5,558.52,307.5,555.03z"/>
		<path class="st14" d="M362.44,555.03v-32.86c0-3.49-0.35-6.32,3.14-6.32h-10.03c-3.49,0-3.14,2.83-3.14,6.32v32.86
			c0,3.49-0.35,6.32,3.14,6.32h10.03C362.1,561.35,362.44,558.52,362.44,555.03z"/>
		<path class="st14" d="M186.28,555.03v-32.86c0-3.49-0.35-6.32,3.14-6.32h-22.67c-3.49,0-3.14,2.83-3.14,6.32v32.86
			c0,3.49-0.35,6.32,3.14,6.32h22.67C185.93,561.35,186.28,558.52,186.28,555.03z"/>
		<path class="st7" d="M161.14,549.55h-9.84c-2.09,0-3.79,1.7-3.79,3.79l0,0c0,2.09,1.7,3.79,3.79,3.79h9.84
			c2.09,0,3.79-1.7,3.79-3.79l0,0C164.93,551.25,163.24,549.55,161.14,549.55z"/>
		<g>
			<path class="st27" d="M593.83,556.61H549.8V483.5h13.69c16.75,0,30.34,13.58,30.34,30.34V556.61z"/>
			<rect x="520.73" y="556.61" class="st27" width="73.1" height="3.48"/>
			<path class="st16" d="M590.04,556.61h-44.03V483.5h13.69c16.75,0,30.34,13.58,30.34,30.34V556.61z"/>
			<g>
				<path class="st12" d="M559.07,483.82h-98.59v66.47h104.91v-60.15C565.39,486.65,562.56,483.82,559.07,483.82z"/>
				<rect x="460.48" y="502.57" class="st13" width="104.91" height="47.72"/>
				<path class="st12" d="M566.87,506.05h-83.85v28.33h90.17v-22.01C573.19,508.88,570.36,506.05,566.87,506.05z"/>
				<rect x="483.02" y="524.8" class="st13" width="90.17" height="9.58"/>
				<path class="st12" d="M574.66,528.27h-69.1v28.33h75.42v-22.01C580.98,531.1,578.15,528.27,574.66,528.27z"/>
				<rect x="505.56" y="551.66" class="st13" width="75.42" height="4.95"/>
				<g>
					<g>
						<path class="st13" d="M530.8,546.86c0,1.4,1.13,2.53,2.53,2.53c1.4,0,2.53-1.13,2.53-2.53c0-1.4-1.13-2.53-2.53-2.53
							C531.93,544.34,530.8,545.47,530.8,546.86z"/>
						<path class="st13" d="M539.48,546.86c0,1.4,1.13,2.53,2.53,2.53c1.4,0,2.53-1.13,2.53-2.53c0-1.4-1.13-2.53-2.53-2.53
							C540.61,544.34,539.48,545.47,539.48,546.86z"/>
						<path class="st13" d="M548.16,546.86c0,1.4,1.13,2.53,2.53,2.53c1.4,0,2.53-1.13,2.53-2.53c0-1.4-1.13-2.53-2.53-2.53
							C549.29,544.34,548.16,545.47,548.16,546.86z"/>
					</g>
					<path class="st13" d="M556.84,546.86c0,1.4,1.13,2.53,2.53,2.53c1.4,0,2.53-1.13,2.53-2.53c0-1.4-1.13-2.53-2.53-2.53
						C557.97,544.34,556.84,545.47,556.84,546.86z"/>
					<path class="st13" d="M565.51,546.86c0,1.4,1.13,2.53,2.53,2.53c1.4,0,2.53-1.13,2.53-2.53c0-1.4-1.13-2.53-2.53-2.53
						C566.64,544.34,565.51,545.47,565.51,546.86z"/>
					<path class="st13" d="M574.19,546.86c0,1.4,1.13,2.53,2.53,2.53c1.4,0,2.53-1.13,2.53-2.53c0-1.4-1.13-2.53-2.53-2.53
						C575.32,544.34,574.19,545.47,574.19,546.86z"/>
				</g>
				<g>
					<g>
						<path class="st13" d="M522.12,520.46c0,1.4,1.13,2.53,2.53,2.53c1.4,0,2.53-1.13,2.53-2.53c0-1.4-1.13-2.53-2.53-2.53
							C523.26,517.93,522.12,519.06,522.12,520.46z"/>
						<path class="st13" d="M530.8,520.46c0,1.4,1.13,2.53,2.53,2.53c1.4,0,2.53-1.13,2.53-2.53c0-1.4-1.13-2.53-2.53-2.53
							C531.93,517.93,530.8,519.06,530.8,520.46z"/>
						<path class="st13" d="M539.48,520.46c0,1.4,1.13,2.53,2.53,2.53c1.4,0,2.53-1.13,2.53-2.53c0-1.4-1.13-2.53-2.53-2.53
							C540.61,517.93,539.48,519.06,539.48,520.46z"/>
					</g>
					<path class="st13" d="M548.16,520.46c0,1.4,1.13,2.53,2.53,2.53c1.4,0,2.53-1.13,2.53-2.53c0-1.4-1.13-2.53-2.53-2.53
						C549.29,517.93,548.16,519.06,548.16,520.46z"/>
					<path class="st13" d="M556.84,520.46c0,1.4,1.13,2.53,2.53,2.53c1.4,0,2.53-1.13,2.53-2.53c0-1.4-1.13-2.53-2.53-2.53
						C557.97,517.93,556.84,519.06,556.84,520.46z"/>
					<path class="st13" d="M565.51,520.46c0,1.4,1.13,2.53,2.53,2.53c1.4,0,2.53-1.13,2.53-2.53c0-1.4-1.13-2.53-2.53-2.53
						C566.65,517.93,565.51,519.06,565.51,520.46z"/>
				</g>
				<g>
					<g>
						<circle class="st13" cx="516.56" cy="497.52" r="2.53"/>
						<circle class="st13" cx="525.23" cy="497.52" r="2.53"/>
						<circle class="st13" cx="533.91" cy="497.52" r="2.53"/>
					</g>
					<path class="st13" d="M540.06,497.52c0,1.4,1.13,2.53,2.53,2.53s2.53-1.13,2.53-2.53c0-1.4-1.13-2.53-2.53-2.53
						S540.06,496.12,540.06,497.52z"/>
					<path class="st13" d="M548.74,497.52c0,1.4,1.13,2.53,2.53,2.53c1.4,0,2.53-1.13,2.53-2.53c0-1.4-1.13-2.53-2.53-2.53
						C549.87,494.99,548.74,496.12,548.74,497.52z"/>
					<path class="st13" d="M557.42,497.52c0,1.4,1.13,2.53,2.53,2.53c1.4,0,2.53-1.13,2.53-2.53c0-1.4-1.13-2.53-2.53-2.53
						C558.55,494.99,557.42,496.12,557.42,497.52z"/>
				</g>
			</g>
			<path class="st27" d="M524.52,556.61h-44.03V483.5h13.69c16.75,0,30.34,13.58,30.34,30.34V556.61z"/>
			<path class="st16" d="M520.73,560.08H476.7V483.5h13.69c16.75,0,30.34,13.58,30.34,30.34V560.08z"/>
		</g>
		<path class="st13" d="M512.73,534.94v22.82c0,0.78-0.01,1.55-0.05,2.33H390.29c-0.04-0.77-0.05-1.54-0.05-2.33v-22.82
			c0-33.77,27.47-61.25,61.24-61.25C485.25,473.69,512.73,501.17,512.73,534.94z"/>
		<path class="st7" d="M451.48,480.01L451.48,480.01c-30.33,0-54.92,24.59-54.92,54.92v22.83c0,30.33,24.59,54.92,54.92,54.92h0
			c30.33,0,54.92-24.59,54.92-54.92v-22.83C506.41,504.6,481.81,480.01,451.48,480.01z"/>
		<g>
			<path class="st14" d="M456.31,587.41c-16.35,0-29.64-13.3-29.64-29.64v-22.83c0-16.35,13.3-29.64,29.64-29.64
				c16.35,0,29.64,13.3,29.64,29.64v22.83C485.96,574.11,472.66,587.41,456.31,587.41z"/>
			<path class="st13" d="M452.68,587.41c-16.35,0-29.64-13.3-29.64-29.64v-22.83c0-16.35,13.3-29.64,29.64-29.64
				c16.35,0,29.64,13.3,29.64,29.64v22.83C482.32,574.11,469.03,587.41,452.68,587.41z"/>
			<g>
				<path class="st14" d="M452.68,576.03c-10.07,0-18.27-8.2-18.27-18.27v-22.83c0-10.07,8.2-18.27,18.27-18.27
					s18.27,8.2,18.27,18.27v22.83C470.95,567.84,462.75,576.03,452.68,576.03z M452.68,519.2c-8.68,0-15.74,7.06-15.74,15.74v22.83
					c0,8.68,7.06,15.74,15.74,15.74c8.68,0,15.74-7.06,15.74-15.74v-22.83C468.42,526.26,461.36,519.2,452.68,519.2z"/>
			</g>
			<path class="st14" d="M452.68,568.45c-5.89,0-10.68-4.79-10.68-10.68v-22.83c0-5.89,4.79-10.68,10.68-10.68
				s10.68,4.79,10.68,10.68v22.83C463.36,563.65,458.57,568.45,452.68,568.45z"/>
			<path class="st13" d="M452.68,562.13c-2.41,0-4.36-1.96-4.36-4.36v-22.83c0-2.41,1.96-4.36,4.36-4.36s4.36,1.96,4.36,4.36v22.83
				C457.04,560.17,455.09,562.13,452.68,562.13z"/>
			<path class="st11" d="M453.25,513.95L453.25,513.95c1.13,0,2.05-0.92,2.05-2.05v-1.79c0-1.13-0.92-2.05-2.05-2.05l0,0
				c-1.13,0-2.05,0.92-2.05,2.05v1.79C451.2,513.03,452.12,513.95,453.25,513.95z"/>
			<path class="st11" d="M468.26,519.32L468.26,519.32c1.13,0,2.05-0.92,2.05-2.05v-1.79c0-1.13-0.92-2.05-2.05-2.05l0,0
				c-1.13,0-2.05,0.92-2.05,2.05v1.79C466.21,518.4,467.13,519.32,468.26,519.32z"/>
			<path class="st11" d="M476.64,533.31L476.64,533.31c1.13,0,2.05-0.92,2.05-2.05v-1.79c0-1.13-0.92-2.05-2.05-2.05l0,0
				c-1.13,0-2.05,0.92-2.05,2.05v1.79C474.58,532.39,475.5,533.31,476.64,533.31z"/>
			<path class="st11" d="M468.26,573.18L468.26,573.18c1.13,0,2.05,0.92,2.05,2.05v1.79c0,1.13-0.92,2.05-2.05,2.05l0,0
				c-1.13,0-2.05-0.92-2.05-2.05v-1.79C466.21,574.1,467.13,573.18,468.26,573.18z"/>
			<path class="st11" d="M476.64,559.18L476.64,559.18c1.13,0,2.05,0.92,2.05,2.05v1.79c0,1.13-0.92,2.05-2.05,2.05l0,0
				c-1.13,0-2.05-0.92-2.05-2.05v-1.79C474.58,560.1,475.5,559.18,476.64,559.18z"/>
			<path class="st11" d="M453.25,578.41L453.25,578.41c1.13,0,2.05,0.92,2.05,2.05v1.79c0,1.13-0.92,2.05-2.05,2.05l0,0
				c-1.13,0-2.05-0.92-2.05-2.05v-1.79C451.2,579.33,452.12,578.41,453.25,578.41z"/>
			<path class="st11" d="M477.11,543.3L477.11,543.3c1.13,0,2.05,0.92,2.05,2.05v1.79c0,1.13-0.92,2.05-2.05,2.05h0
				c-1.13,0-2.05-0.92-2.05-2.05v-1.79C475.06,544.22,475.98,543.3,477.11,543.3z"/>
			<path class="st11" d="M437.1,519.32L437.1,519.32c-1.13,0-2.05-0.92-2.05-2.05v-1.79c0-1.13,0.92-2.05,2.05-2.05l0,0
				c1.13,0,2.05,0.92,2.05,2.05v1.79C439.15,518.4,438.23,519.32,437.1,519.32z"/>
			<path class="st11" d="M428.72,533.31L428.72,533.31c-1.13,0-2.05-0.92-2.05-2.05v-1.79c0-1.13,0.92-2.05,2.05-2.05l0,0
				c1.13,0,2.05,0.92,2.05,2.05v1.79C430.78,532.39,429.86,533.31,428.72,533.31z"/>
			<path class="st11" d="M437.1,573.18L437.1,573.18c-1.13,0-2.05,0.92-2.05,2.05v1.79c0,1.13,0.92,2.05,2.05,2.05l0,0
				c1.13,0,2.05-0.92,2.05-2.05v-1.79C439.15,574.1,438.23,573.18,437.1,573.18z"/>
			<path class="st11" d="M428.72,559.18L428.72,559.18c-1.13,0-2.05,0.92-2.05,2.05v1.79c0,1.13,0.92,2.05,2.05,2.05l0,0
				c1.13,0,2.05-0.92,2.05-2.05v-1.79C430.78,560.1,429.86,559.18,428.72,559.18z"/>
			<path class="st11" d="M428.25,543.3L428.25,543.3c-1.13,0-2.05,0.92-2.05,2.05v1.79c0,1.13,0.92,2.05,2.05,2.05l0,0
				c1.13,0,2.05-0.92,2.05-2.05v-1.79C430.31,544.22,429.39,543.3,428.25,543.3z"/>
			<path class="st11" d="M453.25,552.08L453.25,552.08c1.08,0,1.96-0.88,1.96-1.96v-8.3c0-1.08-0.88-1.96-1.96-1.96l0,0
				c-1.08,0-1.96,0.88-1.96,1.96v8.3C451.29,551.2,452.17,552.08,453.25,552.08z"/>
		</g>
		<g>
			<path class="st11" d="M810.93,480.01L810.93,480.01c-33.13,0-59.98,26.85-59.98,59.98v12.96c0,32.99,26.75,59.74,59.74,59.74
				h28.05l32.17-72.69C870.91,506.87,844.06,480.01,810.93,480.01z"/>
			<path class="st7" d="M839.19,487.08c-8.42-4.51-18.04-7.07-28.25-7.07h0c-33.13,0-59.98,26.85-59.98,59.98v12.96
				c0,11.02,3,21.34,8.21,30.21h80.03V487.08z"/>
			<path class="st14" d="M877.23,540v1.33l-8.3,18.76h-123.9c-0.27-2.34-0.39-4.71-0.39-7.13V540c0-36.57,29.74-66.31,66.3-66.31
				c14.97,0,22.75,0,22.75,0C849.7,485.8,877.23,518.41,877.23,540z"/>
			<path class="st13" d="M868.22,549.12H744.64v3.84c0,2.41,0.13,4.79,0.39,7.13h123.9l8.3-18.76V540c0-2.4-0.36-4.95-0.99-7.59
				L868.22,549.12z"/>
			<path class="st13" d="M894.93,534.94v22.82c0,0.78-0.01,1.55-0.05,2.33H772.5c-0.04-0.77-0.05-1.54-0.05-2.33v-22.82
				c0-33.77,27.47-61.25,61.24-61.25C867.45,473.69,894.93,501.17,894.93,534.94z"/>
			<path class="st7" d="M833.69,480.01L833.69,480.01c-30.33,0-54.92,24.59-54.92,54.92v22.83c0,30.33,24.59,54.92,54.92,54.92h0
				c30.33,0,54.92-24.59,54.92-54.92v-22.83C888.61,504.6,864.02,480.01,833.69,480.01z"/>
			<g>
				<path class="st14" d="M838.16,587.41c-16.35,0-29.64-13.3-29.64-29.64v-22.83c0-16.35,13.3-29.64,29.64-29.64
					c16.35,0,29.64,13.3,29.64,29.64v22.83C867.81,574.11,854.51,587.41,838.16,587.41z"/>
				<path class="st13" d="M834.53,587.41c-16.35,0-29.64-13.3-29.64-29.64v-22.83c0-16.35,13.3-29.64,29.64-29.64
					c16.35,0,29.64,13.3,29.64,29.64v22.83C864.17,574.11,850.87,587.41,834.53,587.41z"/>
				<g>
					<path class="st14" d="M834.53,576.03c-10.07,0-18.27-8.2-18.27-18.27v-22.83c0-10.07,8.2-18.27,18.27-18.27
						c10.07,0,18.27,8.2,18.27,18.27v22.83C852.8,567.84,844.6,576.03,834.53,576.03z M834.53,519.2c-8.68,0-15.74,7.06-15.74,15.74
						v22.83c0,8.68,7.06,15.74,15.74,15.74c8.68,0,15.74-7.06,15.74-15.74v-22.83C850.27,526.26,843.21,519.2,834.53,519.2z"/>
				</g>
				<path class="st14" d="M834.53,568.45c-5.89,0-10.68-4.79-10.68-10.68v-22.83c0-5.89,4.79-10.68,10.68-10.68
					s10.68,4.79,10.68,10.68v22.83C845.21,563.65,840.42,568.45,834.53,568.45z"/>
				<path class="st13" d="M834.53,562.13c-2.41,0-4.36-1.96-4.36-4.36v-22.83c0-2.41,1.96-4.36,4.36-4.36
					c2.41,0,4.36,1.96,4.36,4.36v22.83C838.89,560.17,836.93,562.13,834.53,562.13z"/>
				<path class="st11" d="M835.1,513.95L835.1,513.95c1.13,0,2.05-0.92,2.05-2.05v-1.79c0-1.13-0.92-2.05-2.05-2.05l0,0
					c-1.13,0-2.05,0.92-2.05,2.05v1.79C833.05,513.03,833.97,513.95,835.1,513.95z"/>
				<path class="st11" d="M850.11,519.32L850.11,519.32c1.13,0,2.05-0.92,2.05-2.05v-1.79c0-1.13-0.92-2.05-2.05-2.05l0,0
					c-1.13,0-2.05,0.92-2.05,2.05v1.79C848.06,518.4,848.98,519.32,850.11,519.32z"/>
				<path class="st11" d="M858.48,533.31L858.48,533.31c1.13,0,2.05-0.92,2.05-2.05v-1.79c0-1.13-0.92-2.05-2.05-2.05l0,0
					c-1.13,0-2.05,0.92-2.05,2.05v1.79C856.43,532.39,857.35,533.31,858.48,533.31z"/>
				<path class="st11" d="M850.11,573.18L850.11,573.18c1.13,0,2.05,0.92,2.05,2.05v1.79c0,1.13-0.92,2.05-2.05,2.05l0,0
					c-1.13,0-2.05-0.92-2.05-2.05v-1.79C848.06,574.1,848.98,573.18,850.11,573.18z"/>
				<path class="st11" d="M858.48,559.18L858.48,559.18c1.13,0,2.05,0.92,2.05,2.05v1.79c0,1.13-0.92,2.05-2.05,2.05l0,0
					c-1.13,0-2.05-0.92-2.05-2.05v-1.79C856.43,560.1,857.35,559.18,858.48,559.18z"/>
				<path class="st11" d="M835.1,578.41L835.1,578.41c1.13,0,2.05,0.92,2.05,2.05v1.79c0,1.13-0.92,2.05-2.05,2.05l0,0
					c-1.13,0-2.05-0.92-2.05-2.05v-1.79C833.05,579.33,833.97,578.41,835.1,578.41z"/>
				<path class="st11" d="M858.96,543.3L858.96,543.3c1.13,0,2.05,0.92,2.05,2.05v1.79c0,1.13-0.92,2.05-2.05,2.05l0,0
					c-1.13,0-2.05-0.92-2.05-2.05v-1.79C856.9,544.22,857.82,543.3,858.96,543.3z"/>
				<path class="st11" d="M818.95,519.32L818.95,519.32c-1.13,0-2.05-0.92-2.05-2.05v-1.79c0-1.13,0.92-2.05,2.05-2.05l0,0
					c1.13,0,2.05,0.92,2.05,2.05v1.79C821,518.4,820.08,519.32,818.95,519.32z"/>
				<path class="st11" d="M810.57,533.31L810.57,533.31c-1.13,0-2.05-0.92-2.05-2.05v-1.79c0-1.13,0.92-2.05,2.05-2.05l0,0
					c1.13,0,2.05,0.92,2.05,2.05v1.79C812.63,532.39,811.71,533.31,810.57,533.31z"/>
				<path class="st11" d="M818.95,573.18L818.95,573.18c-1.13,0-2.05,0.92-2.05,2.05v1.79c0,1.13,0.92,2.05,2.05,2.05l0,0
					c1.13,0,2.05-0.92,2.05-2.05v-1.79C821,574.1,820.08,573.18,818.95,573.18z"/>
				<path class="st11" d="M810.57,559.18L810.57,559.18c-1.13,0-2.05,0.92-2.05,2.05v1.79c0,1.13,0.92,2.05,2.05,2.05l0,0
					c1.13,0,2.05-0.92,2.05-2.05v-1.79C812.63,560.1,811.71,559.18,810.57,559.18z"/>
				<path class="st11" d="M810.1,543.3L810.1,543.3c-1.13,0-2.05,0.92-2.05,2.05v1.79c0,1.13,0.92,2.05,2.05,2.05l0,0
					c1.13,0,2.05-0.92,2.05-2.05v-1.79C812.15,544.22,811.23,543.3,810.1,543.3z"/>
				<path class="st11" d="M835.1,552.08L835.1,552.08c1.08,0,1.96-0.88,1.96-1.96v-8.3c0-1.08-0.88-1.96-1.96-1.96l0,0
					c-1.08,0-1.96,0.88-1.96,1.96v8.3C833.14,551.2,834.02,552.08,835.1,552.08z"/>
			</g>
		</g>
		<g>
			<path class="st11" d="M1215.51,480.01L1215.51,480.01c-33.13,0-59.98,26.85-59.98,59.98v12.96c0,32.99,26.75,59.74,59.74,59.74
				h28.05l32.17-72.69C1275.49,506.87,1248.64,480.01,1215.51,480.01z"/>
			<path class="st7" d="M1243.77,487.08c-8.42-4.51-18.04-7.07-28.25-7.07h0c-33.13,0-59.98,26.85-59.98,59.98v12.96
				c0,11.02,3,21.34,8.21,30.21h80.03V487.08z"/>
			<path class="st14" d="M1281.81,540v1.33l-8.3,18.76h-123.9c-0.27-2.34-0.39-4.71-0.39-7.13V540c0-36.57-63.67-66.31-27.12-66.31
				c14.97,0,116.17,0,116.17,0C1254.28,485.8,1281.81,518.41,1281.81,540z"/>
			<path class="st13" d="M1272.79,549.12h-123.58v3.84c0,2.41,0.13,4.79,0.39,7.13h123.9l8.3-18.76V540c0-2.4-0.36-4.95-0.99-7.59
				L1272.79,549.12z"/>
			<path class="st13" d="M1299.51,534.94v22.82c0,0.78-0.01,1.55-0.05,2.33h-122.38c-0.04-0.77-0.05-1.54-0.05-2.33v-22.82
				c0-33.77,27.47-61.25,61.24-61.25C1272.03,473.69,1299.51,501.17,1299.51,534.94z"/>
			<path class="st7" d="M1238.26,480.01L1238.26,480.01c-30.33,0-54.92,24.59-54.92,54.92v22.83c0,30.33,24.59,54.92,54.92,54.92h0
				c30.33,0,54.92-24.59,54.92-54.92v-22.83C1293.19,504.6,1268.6,480.01,1238.26,480.01z"/>
			<g>
				<path class="st14" d="M1242.74,587.41c-16.35,0-29.64-13.3-29.64-29.64v-22.83c0-16.35,13.3-29.64,29.64-29.64
					c16.35,0,29.64,13.3,29.64,29.64v22.83C1272.38,574.11,1259.08,587.41,1242.74,587.41z"/>
				<path class="st13" d="M1239.11,587.41c-16.35,0-29.64-13.3-29.64-29.64v-22.83c0-16.35,13.3-29.64,29.64-29.64
					c16.35,0,29.64,13.3,29.64,29.64v22.83C1268.75,574.11,1255.45,587.41,1239.11,587.41z"/>
				<g>
					<path class="st14" d="M1239.11,576.03c-10.07,0-18.27-8.2-18.27-18.27v-22.83c0-10.07,8.2-18.27,18.27-18.27
						c10.07,0,18.27,8.2,18.27,18.27v22.83C1257.37,567.84,1249.18,576.03,1239.11,576.03z M1239.11,519.2
						c-8.68,0-15.74,7.06-15.74,15.74v22.83c0,8.68,7.06,15.74,15.74,15.74c8.68,0,15.74-7.06,15.74-15.74v-22.83
						C1254.84,526.26,1247.78,519.2,1239.11,519.2z"/>
				</g>
				<path class="st14" d="M1239.11,568.45c-5.89,0-10.68-4.79-10.68-10.68v-22.83c0-5.89,4.79-10.68,10.68-10.68
					s10.68,4.79,10.68,10.68v22.83C1249.79,563.65,1245,568.45,1239.11,568.45z"/>
				<path class="st13" d="M1239.11,562.13c-2.41,0-4.36-1.96-4.36-4.36v-22.83c0-2.41,1.96-4.36,4.36-4.36
					c2.41,0,4.36,1.96,4.36,4.36v22.83C1243.47,560.17,1241.51,562.13,1239.11,562.13z"/>
				<path class="st11" d="M1239.68,513.95L1239.68,513.95c1.13,0,2.05-0.92,2.05-2.05v-1.79c0-1.13-0.92-2.05-2.05-2.05l0,0
					c-1.13,0-2.05,0.92-2.05,2.05v1.79C1237.62,513.03,1238.54,513.95,1239.68,513.95z"/>
				<path class="st11" d="M1254.69,519.32L1254.69,519.32c1.13,0,2.05-0.92,2.05-2.05v-1.79c0-1.13-0.92-2.05-2.05-2.05l0,0
					c-1.13,0-2.05,0.92-2.05,2.05v1.79C1252.63,518.4,1253.55,519.32,1254.69,519.32z"/>
				<path class="st11" d="M1263.06,533.31L1263.06,533.31c1.13,0,2.05-0.92,2.05-2.05v-1.79c0-1.13-0.92-2.05-2.05-2.05l0,0
					c-1.13,0-2.05,0.92-2.05,2.05v1.79C1261.01,532.39,1261.93,533.31,1263.06,533.31z"/>
				<path class="st11" d="M1254.69,573.18L1254.69,573.18c1.13,0,2.05,0.92,2.05,2.05v1.79c0,1.13-0.92,2.05-2.05,2.05l0,0
					c-1.13,0-2.05-0.92-2.05-2.05v-1.79C1252.63,574.1,1253.55,573.18,1254.69,573.18z"/>
				<path class="st11" d="M1263.06,559.18L1263.06,559.18c1.13,0,2.05,0.92,2.05,2.05v1.79c0,1.13-0.92,2.05-2.05,2.05l0,0
					c-1.13,0-2.05-0.92-2.05-2.05v-1.79C1261.01,560.1,1261.93,559.18,1263.06,559.18z"/>
				<path class="st11" d="M1239.68,578.41L1239.68,578.41c1.13,0,2.05,0.92,2.05,2.05v1.79c0,1.13-0.92,2.05-2.05,2.05l0,0
					c-1.13,0-2.05-0.92-2.05-2.05v-1.79C1237.62,579.33,1238.54,578.41,1239.68,578.41z"/>
				<path class="st11" d="M1263.54,543.3L1263.54,543.3c1.13,0,2.05,0.92,2.05,2.05v1.79c0,1.13-0.92,2.05-2.05,2.05l0,0
					c-1.13,0-2.05-0.92-2.05-2.05v-1.79C1261.48,544.22,1262.4,543.3,1263.54,543.3z"/>
				<path class="st11" d="M1223.52,519.32L1223.52,519.32c-1.13,0-2.05-0.92-2.05-2.05v-1.79c0-1.13,0.92-2.05,2.05-2.05l0,0
					c1.13,0,2.05,0.92,2.05,2.05v1.79C1225.58,518.4,1224.66,519.32,1223.52,519.32z"/>
				<path class="st11" d="M1215.15,533.31L1215.15,533.31c-1.13,0-2.05-0.92-2.05-2.05v-1.79c0-1.13,0.92-2.05,2.05-2.05l0,0
					c1.13,0,2.05,0.92,2.05,2.05v1.79C1217.2,532.39,1216.28,533.31,1215.15,533.31z"/>
				<path class="st11" d="M1223.52,573.18L1223.52,573.18c-1.13,0-2.05,0.92-2.05,2.05v1.79c0,1.13,0.92,2.05,2.05,2.05l0,0
					c1.13,0,2.05-0.92,2.05-2.05v-1.79C1225.58,574.1,1224.66,573.18,1223.52,573.18z"/>
				<path class="st11" d="M1215.15,559.18L1215.15,559.18c-1.13,0-2.05,0.92-2.05,2.05v1.79c0,1.13,0.92,2.05,2.05,2.05l0,0
					c1.13,0,2.05-0.92,2.05-2.05v-1.79C1217.2,560.1,1216.28,559.18,1215.15,559.18z"/>
				<path class="st11" d="M1214.68,543.3L1214.68,543.3c-1.13,0-2.05,0.92-2.05,2.05v1.79c0,1.13,0.92,2.05,2.05,2.05l0,0
					c1.13,0,2.05-0.92,2.05-2.05v-1.79C1216.73,544.22,1215.81,543.3,1214.68,543.3z"/>
				<path class="st11" d="M1239.68,552.08L1239.68,552.08c1.08,0,1.96-0.88,1.96-1.96v-8.3c0-1.08-0.88-1.96-1.96-1.96l0,0
					c-1.08,0-1.96,0.88-1.96,1.96v8.3C1237.72,551.2,1238.59,552.08,1239.68,552.08z"/>
			</g>
		</g>
		<g>
			<path class="st12" d="M737.72,474.08h-112.5v72.79h112.5c13.73,0,24.86-11.13,24.86-24.86v-23.07
				C762.58,485.21,751.45,474.08,737.72,474.08z"/>
			<rect x="625.22" y="496.7" class="st13" width="137.36" height="5.87"/>
			<path class="st13" d="M625.22,507.31v39.55h112.5c13.73,0,24.86-11.13,24.86-24.86v-14.69H625.22z"/>
			<path class="st14" d="M737.72,474.08h-112.5v10.69h132.91C753.64,478.31,746.18,474.08,737.72,474.08z"/>
			<path class="st12" d="M625.22,474.08L625.22,474.08c-13.73,0-24.86,11.13-24.86,24.86v23.07c0,13.73,11.13,24.86,24.86,24.86l0,0
				c13.73,0,24.86-11.13,24.86-24.86v-23.07C650.08,485.21,638.95,474.08,625.22,474.08z"/>
			<path class="st13" d="M629,534.22c-6.74,0-12.22-5.48-12.22-12.22v-23.07c0-6.74,5.48-12.22,12.22-12.22
				c6.74,0,12.22,5.48,12.22,12.22v23.07C641.21,528.74,635.73,534.22,629,534.22z"/>
			<path class="st14" d="M623.98,534.22c-6.74,0-12.22-5.48-12.22-12.22v-23.07c0-6.74,5.48-12.22,12.22-12.22
				c6.74,0,12.22,5.48,12.22,12.22v23.07C636.2,528.74,630.72,534.22,623.98,534.22z"/>
			<path class="st14" d="M606.65,522.02v-19.1c0-11.37,9.21-20.58,20.58-20.58c5.12,0,9.79,1.88,13.39,4.97
				c-3.77-4.58-9.49-7.49-15.88-7.49l0,0c-11.36,0-20.58,9.21-20.58,20.58v19.1c0,6.25,2.79,11.83,7.19,15.61
				C608.41,531.55,606.65,526.99,606.65,522.02z"/>
			<path class="st11" d="M714.34,474.08h-6.95c13.73,0,24.86,11.13,24.86,24.86v23.07c0,13.73-11.13,24.86-24.86,24.86h6.95
				c13.73,0,24.86-11.13,24.86-24.86v-23.07C739.19,485.21,728.06,474.08,714.34,474.08z"/>
			<path class="st11" d="M664.22,474.08h-6.95c13.73,0,24.86,11.13,24.86,24.86v23.07c0,13.73-11.13,24.86-24.86,24.86h6.95
				c13.73,0,24.86-11.13,24.86-24.86v-23.07C689.08,485.21,677.95,474.08,664.22,474.08z"/>
		</g>
		<g>
			<path class="st7" d="M161.14,549.55h-9.84c-2.09,0-3.79,1.7-3.79,3.79l0,0c0,2.09,1.7,3.79,3.79,3.79h9.84
				c2.09,0,3.79-1.7,3.79-3.79l0,0C164.93,551.25,163.24,549.55,161.14,549.55z"/>
			<path class="st28" d="M149.41,553.34c0-2.09,1.7-3.79,3.79-3.79h-1.9c-2.09,0-3.79,1.7-3.79,3.79s1.7,3.79,3.79,3.79h1.9
				C151.11,557.13,149.41,555.44,149.41,553.34z"/>
			<path class="st7" d="M184.53,549.55h-9.84c-2.09,0-3.79,1.7-3.79,3.79l0,0c0,2.09,1.7,3.79,3.79,3.79h9.84
				c2.09,0,3.79-1.7,3.79-3.79l0,0C188.32,551.25,186.62,549.55,184.53,549.55z"/>
			<path class="st7" d="M207.91,549.55h-9.84c-2.09,0-3.79,1.7-3.79,3.79l0,0c0,2.09,1.7,3.79,3.79,3.79h9.84
				c2.09,0,3.79-1.7,3.79-3.79l0,0C211.7,551.25,210,549.55,207.91,549.55z"/>
			<path class="st7" d="M231.29,549.55h-9.84c-2.09,0-3.79,1.7-3.79,3.79l0,0c0,2.09,1.7,3.79,3.79,3.79h9.84
				c2.09,0,3.79-1.7,3.79-3.79l0,0C235.09,551.25,233.39,549.55,231.29,549.55z"/>
			<path class="st7" d="M254.68,549.55h-9.84c-2.09,0-3.79,1.7-3.79,3.79l0,0c0,2.09,1.7,3.79,3.79,3.79h9.84
				c2.09,0,3.79-1.7,3.79-3.79l0,0C258.47,551.25,256.77,549.55,254.68,549.55z"/>
			<path class="st7" d="M278.06,549.55h-9.84c-2.09,0-3.79,1.7-3.79,3.79l0,0c0,2.09,1.7,3.79,3.79,3.79h9.84
				c2.09,0,3.79-1.7,3.79-3.79l0,0C281.86,551.25,280.16,549.55,278.06,549.55z"/>
			<path class="st7" d="M301.45,549.55h-9.84c-2.09,0-3.79,1.7-3.79,3.79l0,0c0,2.09,1.7,3.79,3.79,3.79h9.84
				c2.09,0,3.79-1.7,3.79-3.79l0,0C305.24,551.25,303.54,549.55,301.45,549.55z"/>
			<path class="st7" d="M324.83,549.55h-9.84c-2.09,0-3.79,1.7-3.79,3.79l0,0c0,2.09,1.7,3.79,3.79,3.79h9.84
				c2.09,0,3.79-1.7,3.79-3.79l0,0C328.62,551.25,326.93,549.55,324.83,549.55z"/>
			<path class="st7" d="M348.22,549.55h-9.84c-2.09,0-3.79,1.7-3.79,3.79l0,0c0,2.09,1.7,3.79,3.79,3.79h9.84
				c2.09,0,3.79-1.7,3.79-3.79l0,0C352.01,551.25,350.31,549.55,348.22,549.55z"/>
			<path class="st7" d="M371.6,549.55h-9.84c-2.09,0-3.79,1.7-3.79,3.79l0,0c0,2.09,1.7,3.79,3.79,3.79h9.84
				c2.09,0,3.79-1.7,3.79-3.79l0,0C375.39,551.25,373.69,549.55,371.6,549.55z"/>
			<path class="st28" d="M172.79,553.34c0-2.09,1.7-3.79,3.79-3.79h-1.9c-2.09,0-3.79,1.7-3.79,3.79s1.7,3.79,3.79,3.79h1.9
				C174.49,557.13,172.79,555.44,172.79,553.34z"/>
			<path class="st28" d="M196.18,553.34c0-2.09,1.7-3.79,3.79-3.79h-1.9c-2.09,0-3.79,1.7-3.79,3.79s1.7,3.79,3.79,3.79h1.9
				C197.87,557.13,196.18,555.44,196.18,553.34z"/>
			<path class="st28" d="M219.56,553.34c0-2.09,1.7-3.79,3.79-3.79h-1.9c-2.09,0-3.79,1.7-3.79,3.79s1.7,3.79,3.79,3.79h1.9
				C221.26,557.13,219.56,555.44,219.56,553.34z"/>
			<path class="st28" d="M242.95,553.34c0-2.09,1.7-3.79,3.79-3.79h-1.9c-2.09,0-3.79,1.7-3.79,3.79s1.7,3.79,3.79,3.79h1.9
				C244.64,557.13,242.95,555.44,242.95,553.34z"/>
			<path class="st28" d="M266.33,553.34c0-2.09,1.7-3.79,3.79-3.79h-1.9c-2.09,0-3.79,1.7-3.79,3.79s1.7,3.79,3.79,3.79h1.9
				C268.03,557.13,266.33,555.44,266.33,553.34z"/>
			<path class="st28" d="M289.71,553.34c0-2.09,1.7-3.79,3.79-3.79h-1.9c-2.09,0-3.79,1.7-3.79,3.79s1.7,3.79,3.79,3.79h1.9
				C291.41,557.13,289.71,555.44,289.71,553.34z"/>
			<path class="st28" d="M313.1,553.34c0-2.09,1.7-3.79,3.79-3.79h-1.9c-2.09,0-3.79,1.7-3.79,3.79s1.7,3.79,3.79,3.79h1.9
				C314.8,557.13,313.1,555.44,313.1,553.34z"/>
			<path class="st28" d="M336.48,553.34c0-2.09,1.7-3.79,3.79-3.79h-1.9c-2.09,0-3.79,1.7-3.79,3.79s1.7,3.79,3.79,3.79h1.9
				C338.18,557.13,336.48,555.44,336.48,553.34z"/>
			<path class="st28" d="M359.87,553.34c0-2.09,1.7-3.79,3.79-3.79h-1.9c-2.09,0-3.79,1.7-3.79,3.79s1.7,3.79,3.79,3.79h1.9
				C361.56,557.13,359.87,555.44,359.87,553.34z"/>
		</g>
		<path class="st13" d="M136.35,526.38L136.35,526.38c0,1.05,0.85,1.9,1.9,1.9h246.55v-3.79H138.24
			C137.2,524.48,136.35,525.33,136.35,526.38z"/>
		<path class="st13" d="M136.35,542.39L136.35,542.39c0,1.05,0.85,1.9,1.9,1.9h246.55v-3.79H138.24
			C137.2,540.5,136.35,541.35,136.35,542.39z"/>
		<rect x="218.54" y="519.64" class="st14" width="69.27" height="24.65"/>
		<g>
			<rect x="209.51" y="417.72" class="st11" width="15.17" height="3.79"/>
			<rect x="209.51" y="426.05" class="st11" width="15.17" height="3.79"/>
			<rect x="209.51" y="434.37" class="st11" width="15.17" height="3.79"/>
			<rect x="209.51" y="442.69" class="st11" width="15.17" height="3.79"/>
			<rect x="209.51" y="451.01" class="st11" width="15.17" height="3.79"/>
			<rect x="209.51" y="459.33" class="st11" width="15.17" height="3.79"/>
			<rect x="209.51" y="467.65" class="st11" width="15.17" height="3.79"/>
			<rect x="209.51" y="475.97" class="st11" width="15.17" height="3.79"/>
			<rect x="209.51" y="484.3" class="st11" width="15.17" height="3.79"/>
			<rect x="209.51" y="492.62" class="st11" width="15.17" height="3.79"/>
		</g>
		<g>
			<rect x="239.85" y="417.72" class="st11" width="15.17" height="3.79"/>
			<rect x="239.85" y="426.05" class="st11" width="15.17" height="3.79"/>
			<rect x="239.85" y="434.37" class="st11" width="15.17" height="3.79"/>
			<rect x="239.85" y="442.69" class="st11" width="15.17" height="3.79"/>
			<rect x="239.85" y="451.01" class="st11" width="15.17" height="3.79"/>
			<rect x="239.85" y="459.33" class="st11" width="15.17" height="3.79"/>
			<rect x="239.85" y="467.65" class="st11" width="15.17" height="3.79"/>
			<rect x="239.85" y="475.97" class="st11" width="15.17" height="3.79"/>
			<rect x="239.85" y="484.3" class="st11" width="15.17" height="3.79"/>
			<rect x="239.85" y="492.62" class="st11" width="15.17" height="3.79"/>
		</g>
		<g>
			<rect x="270.18" y="417.72" class="st11" width="15.17" height="3.79"/>
			<rect x="270.18" y="426.05" class="st11" width="15.17" height="3.79"/>
			<rect x="270.18" y="434.37" class="st11" width="15.17" height="3.79"/>
			<rect x="270.18" y="442.69" class="st11" width="15.17" height="3.79"/>
			<rect x="270.18" y="451.01" class="st11" width="15.17" height="3.79"/>
			<rect x="270.18" y="459.33" class="st11" width="15.17" height="3.79"/>
			<rect x="270.18" y="467.65" class="st11" width="15.17" height="3.79"/>
			<rect x="270.18" y="475.97" class="st11" width="15.17" height="3.79"/>
			<rect x="270.18" y="484.3" class="st11" width="15.17" height="3.79"/>
			<rect x="270.18" y="492.62" class="st11" width="15.17" height="3.79"/>
		</g>
		<g>
			<rect x="300.52" y="417.72" class="st11" width="15.17" height="3.79"/>
			<rect x="300.52" y="426.05" class="st11" width="15.17" height="3.79"/>
			<rect x="300.52" y="434.37" class="st11" width="15.17" height="3.79"/>
			<rect x="300.52" y="442.69" class="st11" width="15.17" height="3.79"/>
			<rect x="300.52" y="451.01" class="st11" width="15.17" height="3.79"/>
			<rect x="300.52" y="459.33" class="st11" width="15.17" height="3.79"/>
			<rect x="300.52" y="467.65" class="st11" width="15.17" height="3.79"/>
			<rect x="300.52" y="475.97" class="st11" width="15.17" height="3.79"/>
			<rect x="300.52" y="484.3" class="st11" width="15.17" height="3.79"/>
			<rect x="300.52" y="492.62" class="st11" width="15.17" height="3.79"/>
		</g>
		<path class="st14" d="M262.13,376.17L262.13,376.17c-5.76,0-10.43,4.67-10.43,10.43v5.05h20.86v-5.05
			C272.56,380.84,267.89,376.17,262.13,376.17z"/>
		<path class="st13" d="M257.19,384.7c0,2.42,1.96,4.37,4.37,4.37s4.37-1.96,4.37-4.37c0-2.42-1.96-4.37-4.37-4.37
			S257.19,382.29,257.19,384.7z"/>
		<g>
			<path class="st11" d="M1099.34,480.01L1099.34,480.01c-33.13,0-59.98,26.85-59.98,59.98v12.96c0,32.99,26.75,59.74,59.74,59.74
				h28.05l32.17-72.69C1159.32,506.87,1132.47,480.01,1099.34,480.01z"/>
			<path class="st7" d="M1127.6,487.08c-8.42-4.51-18.04-7.07-28.25-7.07l0,0c-33.13,0-59.98,26.85-59.98,59.98v12.96
				c0,11.02,3,21.34,8.21,30.21h80.03V487.08z"/>
			<path class="st14" d="M1165.64,540v1.33l-8.3,18.76h-123.9c-0.27-2.34-0.39-4.71-0.39-7.13V540c0-36.57,29.74-66.31,66.3-66.31
				c14.97,0,22.75,0,22.75,0C1138.11,485.8,1165.64,518.41,1165.64,540z"/>
			<path class="st13" d="M1156.63,549.12h-123.58v3.84c0,2.41,0.13,4.79,0.39,7.13h123.9l8.3-18.76V540c0-2.4-0.36-4.95-0.99-7.59
				L1156.63,549.12z"/>
			<path class="st13" d="M1183.34,534.94v22.82c0,0.78-0.01,1.55-0.05,2.33h-122.38c-0.04-0.77-0.05-1.54-0.05-2.33v-22.82
				c0-33.77,27.47-61.25,61.24-61.25C1155.86,473.69,1183.34,501.17,1183.34,534.94z"/>
			<path class="st7" d="M1122.09,480.01L1122.09,480.01c-30.33,0-54.92,24.59-54.92,54.92v22.83c0,30.33,24.59,54.92,54.92,54.92h0
				c30.33,0,54.92-24.59,54.92-54.92v-22.83C1177.02,504.6,1152.43,480.01,1122.09,480.01z"/>
			<g>
				<path class="st14" d="M1126.57,587.41c-16.35,0-29.64-13.3-29.64-29.64v-22.83c0-16.35,13.3-29.64,29.64-29.64
					c16.35,0,29.64,13.3,29.64,29.64v22.83C1156.21,574.11,1142.92,587.41,1126.57,587.41z"/>
				<path class="st13" d="M1122.94,587.41c-16.35,0-29.64-13.3-29.64-29.64v-22.83c0-16.35,13.3-29.64,29.64-29.64
					c16.35,0,29.64,13.3,29.64,29.64v22.83C1152.58,574.11,1139.28,587.41,1122.94,587.41z"/>
				<g>
					<path class="st14" d="M1122.94,576.03c-10.07,0-18.27-8.2-18.27-18.27v-22.83c0-10.07,8.2-18.27,18.27-18.27
						c10.07,0,18.27,8.2,18.27,18.27v22.83C1141.2,567.84,1133.01,576.03,1122.94,576.03z M1122.94,519.2
						c-8.68,0-15.74,7.06-15.74,15.74v22.83c0,8.68,7.06,15.74,15.74,15.74c8.68,0,15.74-7.06,15.74-15.74v-22.83
						C1138.68,526.26,1131.62,519.2,1122.94,519.2z"/>
				</g>
				<path class="st14" d="M1122.94,568.45c-5.89,0-10.68-4.79-10.68-10.68v-22.83c0-5.89,4.79-10.68,10.68-10.68
					s10.68,4.79,10.68,10.68v22.83C1133.62,563.65,1128.83,568.45,1122.94,568.45z"/>
				<path class="st13" d="M1122.94,562.13c-2.41,0-4.36-1.96-4.36-4.36v-22.83c0-2.41,1.96-4.36,4.36-4.36
					c2.41,0,4.36,1.96,4.36,4.36v22.83C1127.3,560.17,1125.34,562.13,1122.94,562.13z"/>
				<path class="st11" d="M1123.51,513.95L1123.51,513.95c1.13,0,2.05-0.92,2.05-2.05v-1.79c0-1.13-0.92-2.05-2.05-2.05l0,0
					c-1.13,0-2.05,0.92-2.05,2.05v1.79C1121.45,513.03,1122.37,513.95,1123.51,513.95z"/>
				<path class="st11" d="M1138.52,519.32L1138.52,519.32c1.13,0,2.05-0.92,2.05-2.05v-1.79c0-1.13-0.92-2.05-2.05-2.05l0,0
					c-1.13,0-2.05,0.92-2.05,2.05v1.79C1136.46,518.4,1137.38,519.32,1138.52,519.32z"/>
				<path class="st11" d="M1146.89,533.31L1146.89,533.31c1.13,0,2.05-0.92,2.05-2.05v-1.79c0-1.13-0.92-2.05-2.05-2.05l0,0
					c-1.13,0-2.05,0.92-2.05,2.05v1.79C1144.84,532.39,1145.76,533.31,1146.89,533.31z"/>
				<path class="st11" d="M1138.52,573.18L1138.52,573.18c1.13,0,2.05,0.92,2.05,2.05v1.79c0,1.13-0.92,2.05-2.05,2.05l0,0
					c-1.13,0-2.05-0.92-2.05-2.05v-1.79C1136.46,574.1,1137.38,573.18,1138.52,573.18z"/>
				<path class="st11" d="M1146.89,559.18L1146.89,559.18c1.13,0,2.05,0.92,2.05,2.05v1.79c0,1.13-0.92,2.05-2.05,2.05l0,0
					c-1.13,0-2.05-0.92-2.05-2.05v-1.79C1144.84,560.1,1145.76,559.18,1146.89,559.18z"/>
				<path class="st11" d="M1123.51,578.41L1123.51,578.41c1.13,0,2.05,0.92,2.05,2.05v1.79c0,1.13-0.92,2.05-2.05,2.05l0,0
					c-1.13,0-2.05-0.92-2.05-2.05v-1.79C1121.45,579.33,1122.37,578.41,1123.51,578.41z"/>
				<path class="st11" d="M1147.37,543.3L1147.37,543.3c1.13,0,2.05,0.92,2.05,2.05v1.79c0,1.13-0.92,2.05-2.05,2.05l0,0
					c-1.13,0-2.05-0.92-2.05-2.05v-1.79C1145.31,544.22,1146.23,543.3,1147.37,543.3z"/>
				<path class="st11" d="M1107.36,519.32L1107.36,519.32c-1.13,0-2.05-0.92-2.05-2.05v-1.79c0-1.13,0.92-2.05,2.05-2.05l0,0
					c1.13,0,2.05,0.92,2.05,2.05v1.79C1109.41,518.4,1108.49,519.32,1107.36,519.32z"/>
				<path class="st11" d="M1098.98,533.31L1098.98,533.31c-1.13,0-2.05-0.92-2.05-2.05v-1.79c0-1.13,0.92-2.05,2.05-2.05l0,0
					c1.13,0,2.05,0.92,2.05,2.05v1.79C1101.04,532.39,1100.12,533.31,1098.98,533.31z"/>
				<path class="st11" d="M1107.36,573.18L1107.36,573.18c-1.13,0-2.05,0.92-2.05,2.05v1.79c0,1.13,0.92,2.05,2.05,2.05l0,0
					c1.13,0,2.05-0.92,2.05-2.05v-1.79C1109.41,574.1,1108.49,573.18,1107.36,573.18z"/>
				<path class="st11" d="M1098.98,559.18L1098.98,559.18c-1.13,0-2.05,0.92-2.05,2.05v1.79c0,1.13,0.92,2.05,2.05,2.05l0,0
					c1.13,0,2.05-0.92,2.05-2.05v-1.79C1101.04,560.1,1100.12,559.18,1098.98,559.18z"/>
				<path class="st11" d="M1098.51,543.3L1098.51,543.3c-1.13,0-2.05,0.92-2.05,2.05v1.79c0,1.13,0.92,2.05,2.05,2.05l0,0
					c1.13,0,2.05-0.92,2.05-2.05v-1.79C1100.56,544.22,1099.64,543.3,1098.51,543.3z"/>
				<path class="st11" d="M1123.51,552.08L1123.51,552.08c1.08,0,1.96-0.88,1.96-1.96v-8.3c0-1.08-0.88-1.96-1.96-1.96l0,0
					c-1.08,0-1.96,0.88-1.96,1.96v8.3C1121.55,551.2,1122.43,552.08,1123.51,552.08z"/>
			</g>
		</g>
		<path class="st16" d="M605.51,316.28v-0.15h-4.21v-71.7c0,0,0,0,0,0v-7.3h-17.7v79h-8.46v0.05c-1.84,0.26-3.26,1.83-3.26,3.74
			v4.42c0,1.91,1.42,3.48,3.26,3.74v104.44c-1.84,0.26-3.26,1.83-3.26,3.74v4.42c0,2.09,1.7,3.79,3.79,3.79h7.94v8.83
			c0,3.82-3.1,6.92-6.92,6.92h-8.18v17.7h8.18c13.59,0,24.61-11.02,24.61-24.61v-8.83h3.23c2.09,0,3.79-1.7,3.79-3.79v-4.42
			c0-1.75-1.19-3.21-2.8-3.65V327.99c1.61-0.44,2.8-1.9,2.8-3.65v-4.42C608.31,318.17,607.12,316.71,605.51,316.28z"/>
		<g>
			<g>
				<path class="st11" d="M593.65,201.1c-8.39,4.37-14.13,13.15-14.13,23.24v228.96c0,3.82-3.1,6.92-6.92,6.92h-5.07v17.7h5.07
					c13.59,0,24.61-11.02,24.61-24.61V224.35c0-2.86,1.42-5.4,3.6-6.94c2.97-2.1,4.9-5.35,4.9-8.99v-0.03
					C605.71,202.2,599.14,198.24,593.65,201.1z"/>
			</g>
			<path class="st7" d="M589.63,349.41v98.65c0,21.53-8.68,23.22-22.1,23.34v6.51h5.07c13.57,0,24.61-11.04,24.61-24.61V349.41
				H589.63z"/>
			<rect x="579.52" y="443.79" class="st7" width="17.7" height="4.42"/>
			<path class="st7" d="M589.14,228.75v163.22h8.07V224.35c0-0.33,0.02-0.65,0.06-0.97c0.01-0.1,0.03-0.2,0.05-0.3
				c0.03-0.22,0.07-0.43,0.12-0.65c0.03-0.11,0.05-0.22,0.09-0.33c0.06-0.2,0.12-0.4,0.19-0.6c0.04-0.1,0.07-0.21,0.11-0.31
				c0.09-0.22,0.19-0.43,0.29-0.64c0.03-0.07,0.06-0.14,0.1-0.2c0.15-0.27,0.31-0.53,0.48-0.79c0.04-0.06,0.09-0.12,0.13-0.18
				c0.14-0.19,0.28-0.37,0.43-0.55c0.07-0.08,0.14-0.16,0.22-0.24c0.14-0.15,0.28-0.29,0.43-0.43c0.08-0.08,0.16-0.15,0.24-0.22
				c0.16-0.14,0.33-0.27,0.5-0.4c0.06-0.04,0.11-0.09,0.17-0.13c2.97-2.1,4.9-5.35,4.9-8.99v-0.03c0-0.61-0.08-1.19-0.2-1.75
				C594.63,209.64,589.14,217.78,589.14,228.75z"/>
			<rect x="571.05" y="316.13" class="st12" width="30.38" height="122.34"/>
			<rect x="573.74" y="316.13" class="st14" width="7.07" height="122.34"/>
			<polygon class="st13" points="571.05,316.13 571.05,329.82 595.12,329.82 595.12,438.47 601.43,438.47 601.43,316.13 			"/>
			<g>
				<g>
					<rect x="571.05" y="361" class="st13" width="30.38" height="2.53"/>
				</g>
				<g>
					<rect x="571.05" y="369.22" class="st13" width="30.38" height="2.53"/>
				</g>
				<g>
					<rect x="571.05" y="377.43" class="st13" width="30.38" height="2.53"/>
				</g>
				<g>
					<rect x="571.05" y="385.65" class="st13" width="30.38" height="2.53"/>
				</g>
				<g>
					<rect x="571.05" y="393.87" class="st13" width="30.38" height="2.53"/>
				</g>
				<g>
					<rect x="571.05" y="402.08" class="st13" width="30.38" height="2.53"/>
				</g>
				<g>
					<rect x="571.05" y="410.3" class="st13" width="30.38" height="2.53"/>
				</g>
				<g>
					<rect x="571.05" y="418.51" class="st13" width="30.38" height="2.53"/>
				</g>
			</g>
			<path class="st14" d="M600.44,328.14h-28.86c-2.09,0-3.79-1.7-3.79-3.79v-4.42c0-2.09,1.7-3.79,3.79-3.79h28.86
				c2.09,0,3.79,1.7,3.79,3.79v4.42C604.23,326.44,602.54,328.14,600.44,328.14z"/>
			<path class="st13" d="M600.44,316.13h-6.81c2.09,0,3.79,1.7,3.79,3.79v4.42c0,2.09-1.7,3.79-3.79,3.79h6.81
				c2.09,0,3.79-1.7,3.79-3.79v-4.42C604.23,317.83,602.54,316.13,600.44,316.13z"/>
			<path class="st12" d="M595.32,328.14h-9.27c-2.09,0-3.79-1.7-3.79-3.79v-4.42c0-2.09,1.7-3.79,3.79-3.79h9.27
				c2.09,0,3.79,1.7,3.79,3.79v4.42C599.11,326.44,597.41,328.14,595.32,328.14z"/>
			<path class="st14" d="M600.44,444.48h-28.86c-2.09,0-3.79-1.7-3.79-3.79v-4.42c0-2.09,1.7-3.79,3.79-3.79h28.86
				c2.09,0,3.79,1.7,3.79,3.79v4.42C604.23,442.78,602.54,444.48,600.44,444.48z"/>
			<g>
				<circle class="st13" cx="577.33" cy="333.84" r="2.53"/>
				<path class="st13" d="M583.48,333.83c0,1.4,1.13,2.53,2.53,2.53c1.4,0,2.53-1.13,2.53-2.53s-1.13-2.53-2.53-2.53
					C584.62,331.31,583.48,332.44,583.48,333.83z"/>
				<circle class="st13" cx="594.69" cy="333.84" r="2.53"/>
			</g>
			<g>
				<circle class="st13" cx="577.33" cy="343.32" r="2.53"/>
				<circle class="st13" cx="586.01" cy="343.32" r="2.53"/>
				<circle class="st13" cx="594.69" cy="343.32" r="2.53"/>
			</g>
			<g>
				<circle class="st13" cx="577.33" cy="352.8" r="2.53"/>
				<circle class="st13" cx="586.01" cy="352.8" r="2.53"/>
				<circle class="st13" cx="594.69" cy="352.8" r="2.53"/>
			</g>
			<path class="st13" d="M600.44,432.47h-6.81c2.09,0,3.79,1.7,3.79,3.79v4.42c0,2.09-1.7,3.79-3.79,3.79h6.81
				c2.09,0,3.79-1.7,3.79-3.79v-4.42C604.23,434.17,602.54,432.47,600.44,432.47z"/>
			<path class="st12" d="M595.32,444.48h-9.27c-2.09,0-3.79-1.7-3.79-3.79v-4.42c0-2.09,1.7-3.79,3.79-3.79h9.27
				c2.09,0,3.79,1.7,3.79,3.79v4.42C599.11,442.78,597.41,444.48,595.32,444.48z"/>
		</g>
		<rect x="940.37" y="531.99" class="st11" width="43.66" height="6.9"/>
		<g>
			<path class="st7" d="M318.67,384.01h8.75c2.04,0,3.68-1.65,3.68-3.68v0c0-2.03-1.65-3.68-3.68-3.68h-8.75
				c-2.03,0-3.68,1.65-3.68,3.68v0C314.98,382.36,316.63,384.01,318.67,384.01z"/>
			<path class="st7" d="M371.52,382.12h-26.86c-0.92,0-1.66-0.74-1.66-1.66v-2.16c0-0.92,0.74-1.66,1.66-1.66h26.86
				c0.92,0,1.66,0.74,1.66,1.66v2.16C373.18,381.37,372.44,382.12,371.52,382.12z"/>
			<path class="st11" d="M367.39,376.64h-43.82c-1.16,0-2.1,0.94-2.1,2.1l0,0c0,1.16,0.94,2.1,2.1,2.1h43.82
				c1.16,0,2.1-0.94,2.1-2.1l0,0C369.49,377.59,368.55,376.64,367.39,376.64z"/>
			<path class="st13" d="M367.39,376.64h-43.82c-0.74,0-1.39,0.39-1.77,0.97c0.33-0.21,0.72-0.34,1.14-0.34h43.82
				c1.16,0,2.1,0.94,2.1,2.1c0,0.42-0.13,0.81-0.34,1.14c0.58-0.37,0.97-1.02,0.97-1.77C369.49,377.59,368.55,376.64,367.39,376.64z
				"/>
		</g>
		<g>
			<path class="st7" d="M391.75,384.01h8.75c2.03,0,3.68-1.65,3.68-3.68v0c0-2.03-1.65-3.68-3.68-3.68h-8.75
				c-2.03,0-3.68,1.65-3.68,3.68v0C388.07,382.36,389.72,384.01,391.75,384.01z"/>
			<path class="st7" d="M444.6,382.12h-26.86c-0.92,0-1.66-0.74-1.66-1.66v-2.16c0-0.92,0.74-1.66,1.66-1.66h26.86
				c0.92,0,1.66,0.74,1.66,1.66v2.16C446.26,381.37,445.52,382.12,444.6,382.12z"/>
			<path class="st11" d="M440.47,376.64h-43.82c-1.16,0-2.1,0.94-2.1,2.1l0,0c0,1.16,0.94,2.1,2.1,2.1h43.82
				c1.16,0,2.1-0.94,2.1-2.1l0,0C442.58,377.59,441.63,376.64,440.47,376.64z"/>
			<path class="st13" d="M440.47,376.64h-43.82c-0.74,0-1.39,0.39-1.77,0.97c0.33-0.21,0.72-0.34,1.14-0.34h43.82
				c1.16,0,2.1,0.94,2.1,2.1c0,0.42-0.13,0.81-0.34,1.14c0.58-0.37,0.97-1.02,0.97-1.77C442.58,377.59,441.63,376.64,440.47,376.64z
				"/>
		</g>
		<g>
			<path class="st7" d="M496.71,338.88L496.71,338.88c-1.75,0-3.16-1.41-3.16-3.16v-9.48c0-0.35-0.28-0.63-0.63-0.63h-5.16
				c-2.02,0-3.52-1.87-3.08-3.85l0,0c0.32-1.45,1.6-2.47,3.08-2.47h5.16c3.84,0,6.95,3.11,6.95,6.95v9.48
				C499.87,337.47,498.46,338.88,496.71,338.88z"/>
		</g>
		<path class="st11" d="M492.92,319.29h-5.16c-1.07,0-2.04,0.55-2.61,1.4c0.4-0.18,0.83-0.29,1.29-0.29h6.07
			c3.34,0,6.04,2.7,6.04,6.04v10.39c0,0.65-0.2,1.26-0.54,1.77c1.09-0.5,1.86-1.59,1.86-2.87v-9.48
			C499.87,322.4,496.76,319.29,492.92,319.29z"/>
		<g>
			<path class="st7" d="M491.97,414.72h-21.04c-1.75,0-3.16-1.41-3.16-3.16l0,0c0-1.75,1.41-3.16,3.16-3.16h21.04
				c0.87,0,1.58-0.71,1.58-1.58v-5.37c0-1.75,1.41-3.16,3.16-3.16l0,0c1.75,0,3.16,1.41,3.16,3.16v5.37
				C499.87,411.19,496.34,414.72,491.97,414.72z"/>
		</g>
		<path class="st11" d="M468.62,412.62c0-1.75,1.41-3.16,3.16-3.16h21.04c0.87,0,1.58-0.71,1.58-1.58v-8.56
			c-0.52,0.56-0.84,1.31-0.84,2.13v5.37c0,0.87-0.71,1.58-1.58,1.58h-21.04c-1.75,0-3.16,1.41-3.16,3.16c0,0.99,0.46,1.86,1.18,2.44
			C468.75,413.58,468.62,413.12,468.62,412.62z"/>
		<path class="st11" d="M493.55,406.74v0.08c0,0.87-0.71,1.58-1.58,1.58h-20.92c-1.45,0-2.79,0.92-3.16,2.32
			c-0.3,1.12,0.03,2.16,0.68,2.91c0.04-1.71,1.43-3.08,3.15-3.08h21.04c0.15,0,0.31-0.05,0.49-0.14c1.26-0.63,1.48-2.35,0.54-3.41
			L493.55,406.74z"/>
		<g>
			<path class="st29" d="M523.6,380.24c-0.65,0-1.29-0.25-1.79-0.74c-0.99-0.99-0.99-2.59,0-3.58l22.9-22.9
				c0.99-0.99,2.59-0.99,3.58,0c0.99,0.99,0.99,2.59,0,3.58l-22.9,22.9C524.9,379.99,524.25,380.24,523.6,380.24z"/>
		</g>
		<g>
			<path class="st29" d="M396.05,360.08c-0.65,0-1.29-0.25-1.79-0.74c-0.99-0.99-0.99-2.59,0-3.58l21.69-21.68
				c0.99-0.99,2.59-0.99,3.58,0c0.99,0.99,0.99,2.59,0,3.58l-21.69,21.68C397.34,359.83,396.69,360.08,396.05,360.08z"/>
		</g>
		<g>
			<path class="st29" d="M529.58,356.39c-0.65,0-1.29-0.25-1.79-0.74c-0.99-0.99-0.99-2.59,0-3.58l16.03-16.03
				c0.99-0.99,2.59-0.99,3.58,0c0.99,0.99,0.99,2.59,0,3.58l-16.03,16.03C530.87,356.14,530.23,356.39,529.58,356.39z"/>
		</g>
		<g>
			<path class="st29" d="M446.71,351.33c-0.65,0-1.29-0.25-1.79-0.74c-0.99-0.99-0.99-2.59,0-3.58l12.44-12.44
				c0.99-0.99,2.59-0.99,3.58,0c0.99,0.99,0.99,2.59,0,3.58l-12.44,12.44C448,351.08,447.35,351.33,446.71,351.33z"/>
		</g>
		<g>
			<path class="st29" d="M366.02,352.06c-0.65,0-1.29-0.25-1.79-0.74c-0.99-0.99-0.99-2.59,0-3.58l12.44-12.44
				c0.99-0.99,2.59-0.99,3.58,0c0.99,0.99,0.99,2.59,0,3.58l-12.44,12.44C367.31,351.82,366.66,352.06,366.02,352.06z"/>
		</g>
		<path class="st1" d="M507.57,115.15h-19.11c-2.56,0-4.63-2.08-4.63-4.63l0,0c0-2.56,2.08-4.63,4.63-4.63h19.11
			c2.56,0,4.63,2.07,4.63,4.63l0,0C512.2,113.08,510.13,115.15,507.57,115.15z"/>
		<path class="st2" d="M594.25,202.4h20.89c2.38,0,4.31-1.93,4.31-4.31V155.4c0-16.37,13.27-29.64,29.64-29.64h18.97
			c8.04,0,14.55-6.52,14.55-14.55V23.68h80.36v70.15c0,31.57-25.59,57.16-57.16,57.16h-54.46c-7.62,0-13.8,6.18-13.8,13.8v22.8
			c0,13.54-10.98,24.53-24.53,24.53h-21.06L594.25,202.4z"/>
		<path class="st1" d="M723.29,79.76L723.29,79.76c-5.58,0-10.11,4.53-10.11,10.11v16.33c0,5.58,4.53,10.11,10.11,10.11l0,0
			c5.58,0,10.11-4.53,10.11-10.11V89.87C733.4,84.29,728.87,79.76,723.29,79.76z"/>
		<g>
			<g>
				<g>
					<path class="st10" d="M544.1,275.67h-1.09v-2.53c0-0.62-0.51-1.13-1.13-1.13c-1.23,0-2.22-1-2.22-2.22v-0.62
						c0-0.62-0.51-1.13-1.13-1.13h-1.13c-1.23,0-2.22-1-2.22-2.22v-2.45h1.09v2.45c0,0.62,0.51,1.13,1.13,1.13h1.13
						c1.23,0,2.22,1,2.22,2.22v0.62c0,0.62,0.51,1.13,1.13,1.13c1.23,0,2.22,1,2.22,2.22V275.67z"/>
				</g>
				
					<rect x="526.25" y="262.37" transform="matrix(-1 -1.224647e-16 1.224647e-16 -1 1055.6388 538.0335)" class="st9" width="3.15" height="13.3"/>
				<g>
					<path class="st8" d="M508.21,276.3l8.19-7.01c4.03-3.45,9.15-5.34,14.45-5.34h8.41c1.9,0,3.43-1.55,3.42-3.45l0,0l0.05,0.11
						v-0.03c0-1.89-1.53-3.42-3.42-3.42h-8.6c-5.22,0-10.28-1.84-14.28-5.2l-8.27-6.94L508.21,276.3z"/>
				</g>
				<path class="st9" d="M539.26,261.91h-8.41c-5.3,0-10.43,1.89-14.45,5.34l-8.19,7.01l-0.05-29.23l0,0l0.05,31.28l8.19-7.01
					c4.03-3.45,9.15-5.34,14.45-5.34h8.41c1.9,0,3.43-1.55,3.42-3.45l0.05,0.11v-0.03c0-0.39-0.07-0.77-0.19-1.12
					C542.12,260.87,540.81,261.91,539.26,261.91z"/>
				<path class="st2" d="M501.31,260.62c0,6.02,2.39,11.48,6.27,15.49c0.2,0.21,0.54,0.21,0.75,0c3.88-4.01,6.27-9.47,6.27-15.49
					c0-6.02-2.39-11.48-6.27-15.49c-0.2-0.21-0.54-0.21-0.75,0C503.7,249.14,501.31,254.6,501.31,260.62z"/>
				<path class="st9" d="M507.96,273.75c-3.1-3.68-4.79-8.29-4.79-13.13c0-4.84,1.69-9.45,4.79-13.13c3.1,3.68,4.79,8.29,4.79,13.13
					C512.75,265.46,511.06,270.07,507.96,273.75z"/>
				<path class="st2" d="M511.78,254.41c-3.02,0.46-5.33,3.06-5.33,6.21c0,3.15,2.31,5.75,5.33,6.21c0.63-1.98,0.96-4.08,0.96-6.21
					C512.75,258.48,512.42,256.39,511.78,254.41z"/>
			</g>
		</g>
	</g>
</g>
<g class="st30">
	<g>
		<polygon class="st2" points="1156.12,320.17 1195.99,360.03 1195.99,403.65 1156.12,403.65 		"/>
		<path class="st2" d="M954.3,336.76v66.67h-39.77v-10.76c-12.16,7.25-26.2,10.99-40.47,10.99c-21.52,0-41.64-8.42-56.84-23.62
			c-15.2-15.21-23.62-35.32-23.62-56.84c0-12.16,2.57-23.86,7.72-34.62l1.87-4.21l30.88,30.88l-0.23,1.64
			c-0.23,2.11-0.47,4.21-0.47,6.32c0,10.76,4.21,20.82,11.93,28.54c7.72,7.72,17.78,11.93,28.54,11.93c8.42,0,16.37-2.57,23.16-7.25
			l-14.5-20.12L954.3,336.76z M839.22,301.9l-28.54-28.54l1.87-2.34c15.2-18.01,37.66-28.3,61.28-28.3
			c16.37,0,32.05,4.91,45.38,14.27c16.84,11.46,28.54,28.77,32.98,48.65l0.94,3.98h-41.17l-0.94-1.87
			c-2.11-4.91-5.15-9.36-8.89-13.1c-7.72-7.72-17.78-11.93-28.54-11.93c-10.76,0-20.82,4.21-28.54,11.93
			c-1.4,1.4-2.81,3.04-3.98,4.68L839.22,301.9z"/>
		<polygon class="st2" points="1126.41,242.96 1126.41,403.65 1086.64,403.65 1086.64,332.78 1046.18,373.48 1005.71,332.78 
			965.95,293.01 965.95,242.96 972.26,242.96 1046.41,317.11 1120.56,242.96 		"/>
		<polygon class="st2" points="966.18,311.26 1005.95,351.02 1005.95,403.65 966.18,403.65 		"/>
		<polyline class="st2" points="1245.1,242.72 1136.93,242.72 1136.93,282.59 1156.01,282.59 1156.01,302.06 1195.88,341.93 
			1195.88,282.59 1245.1,282.59 		"/>
	</g>
</g>
</svg>
